<svg id="billboard-3" xmlns="http://www.w3.org/2000/svg" xmlns:xlink="http://www.w3.org/1999/xlink" viewBox="0 0 113 168"><defs><style>.cls-1,.cls-2,.cls-4,.cls-5,.cls-6,.cls-7,.cls-8{fill:none;}.cls-2{stroke:#fffdfd;}.cls-3{clip-path:url(#clip-path);}.cls-4{stroke:#231f20;}.cls-4,.cls-5,.cls-6,.cls-7,.cls-8{stroke-width:0.3px;}.cls-16,.cls-19,.cls-5{stroke:#f47053;}.cls-10,.cls-6{stroke:#406ab3;}.cls-7{stroke:#fcd3d3;}.cls-8{stroke:#adc5e7;}.cls-10,.cls-19,.cls-21,.cls-9{fill:#fff;}.cls-10,.cls-16,.cls-19{stroke-miterlimit:10;}.cls-10{stroke-width:8px;}.cls-11{fill:url(#pancit-billboard);}.cls-12{fill:#adc5e7;}.cls-13{fill:#406ab3;}.cls-14,.cls-22{fill:#f47053;}.cls-15,.cls-16{fill:#fcd3d3;}.cls-17{fill:url(#New_Pattern_Swatch_2);}.cls-18{fill:#f37154;}.cls-19{font-size:8px;stroke-width:0.25px;font-family:Impact;}.cls-20{letter-spacing:-0.02em;}.cls-21{font-size:2.9px;}.cls-21,.cls-22{font-family:ComicSansMS-Bold, Comic Sans MS;font-weight:700;}.cls-22{font-size:1.64px;}</style><clipPath id="clip-path"><rect class="cls-1" width="72" height="72"/></clipPath><pattern id="pancit-billboard" data-name="pancit-billboard" x="-645" y="-364" width="72" height="72" patternUnits="userSpaceOnUse" viewBox="0 0 72 72"><rect class="cls-1" width="72" height="72"/><line class="cls-4" x1="60.71" y1="75.62" x2="64.19" y2="69.54"/><line class="cls-4" x1="62.45" y1="68.55" x2="58.97" y2="74.62"/><line class="cls-5" x1="46.01" y1="76.42" x2="43.63" y2="69.84"/><line class="cls-5" x1="41.75" y1="70.52" x2="44.13" y2="77.1"/><line class="cls-4" x1="33.44" y1="74.76" x2="35.16" y2="67.97"/><line class="cls-4" x1="33.22" y1="67.48" x2="31.5" y2="74.27"/><line class="cls-6" x1="27.79" y1="74.6" x2="21.35" y2="71.87"/><line class="cls-4" x1="11.88" y1="74.23" x2="13.79" y2="67.49"/><line class="cls-4" x1="11.86" y1="66.95" x2="9.96" y2="73.69"/><line class="cls-4" x1="5.79" y1="73.85" x2="3.78" y2="67.14"/><line class="cls-4" x1="1.86" y1="67.72" x2="3.88" y2="74.42"/><line class="cls-4" x1="48.03" y1="68.21" x2="52.46" y2="73.63"/><line class="cls-4" x1="54.01" y1="72.36" x2="49.58" y2="66.94"/><line class="cls-4" x1="68.74" y1="25.22" x2="75.26" y2="22.67"/><line class="cls-7" x1="73.2" y1="39.06" x2="70.64" y2="45.58"/><line class="cls-4" x1="-3.26" y1="25.22" x2="3.26" y2="22.67"/><line class="cls-7" x1="1.2" y1="39.06" x2="-1.36" y2="45.58"/><line class="cls-7" x1="0.5" y1="46.31" x2="3.06" y2="39.8"/><line class="cls-8" x1="66.22" y1="4.58" x2="72.39" y2="7.9"/><line class="cls-8" x1="73.33" y1="6.14" x2="67.17" y2="2.82"/><line class="cls-5" x1="66.27" y1="19.01" x2="71.57" y2="14.44"/><line class="cls-5" x1="70.26" y1="12.92" x2="64.96" y2="17.5"/><line class="cls-8" x1="68.74" y1="25.22" x2="75.26" y2="22.67"/><line class="cls-8" x1="74.53" y1="20.81" x2="68.01" y2="23.36"/><line class="cls-7" x1="65.93" y1="33.83" x2="72.76" y2="35.37"/><line class="cls-7" x1="73.2" y1="33.42" x2="66.38" y2="31.88"/><line class="cls-5" x1="65.97" y1="55.2" x2="72.76" y2="56.92"/><line class="cls-5" x1="73.25" y1="54.98" x2="66.47" y2="53.26"/><line class="cls-7" x1="67.01" y1="65.17" x2="73.66" y2="62.98"/><line class="cls-7" x1="73.03" y1="61.08" x2="66.38" y2="63.27"/><line class="cls-4" x1="60.71" y1="3.62" x2="64.19" y2="-2.46"/><line class="cls-4" x1="62.45" y1="-3.45" x2="58.97" y2="2.62"/><line class="cls-5" x1="46.01" y1="4.42" x2="43.63" y2="-2.16"/><line class="cls-5" x1="41.75" y1="-1.48" x2="44.13" y2="5.1"/><line class="cls-4" x1="33.44" y1="2.76" x2="35.16" y2="-4.03"/><line class="cls-4" x1="33.22" y1="-4.52" x2="31.5" y2="2.27"/><line class="cls-6" x1="27.79" y1="2.6" x2="21.35" y2="-0.13"/><line class="cls-6" x1="20.57" y1="1.71" x2="27.01" y2="4.44"/><line class="cls-4" x1="11.88" y1="2.23" x2="13.79" y2="-4.51"/><line class="cls-4" x1="11.86" y1="-5.05" x2="9.96" y2="1.69"/><line class="cls-4" x1="5.79" y1="1.85" x2="3.78" y2="-4.86"/><line class="cls-4" x1="1.86" y1="-4.28" x2="3.88" y2="2.42"/><line class="cls-5" x1="62.45" y1="68.55" x2="58.97" y2="74.62"/><line class="cls-5" x1="60.71" y1="75.62" x2="64.19" y2="69.54"/><line class="cls-5" x1="48.03" y1="68.21" x2="52.46" y2="73.63"/><line class="cls-5" x1="54.01" y1="72.36" x2="49.58" y2="66.94"/><line class="cls-5" x1="41.75" y1="70.52" x2="44.13" y2="77.1"/><line class="cls-5" x1="46.01" y1="76.42" x2="43.63" y2="69.84"/><line class="cls-5" x1="33.22" y1="67.48" x2="31.5" y2="74.27"/><line class="cls-5" x1="33.44" y1="74.76" x2="35.16" y2="67.97"/><line class="cls-7" x1="11.86" y1="66.95" x2="9.96" y2="73.69"/><line class="cls-7" x1="11.88" y1="74.23" x2="13.79" y2="67.49"/><line class="cls-5" x1="1.86" y1="67.72" x2="3.88" y2="74.42"/><line class="cls-5" x1="5.79" y1="73.85" x2="3.78" y2="67.14"/><line class="cls-8" x1="15.45" y1="46.05" x2="11.97" y2="52.12"/><line class="cls-8" x1="13.71" y1="53.12" x2="17.19" y2="47.04"/><line class="cls-8" x1="45.51" y1="13.86" x2="41.08" y2="8.44"/><line class="cls-8" x1="39.53" y1="9.71" x2="43.96" y2="15.13"/><line class="cls-5" x1="33.25" y1="12.02" x2="35.63" y2="18.6"/><line class="cls-5" x1="37.51" y1="17.92" x2="35.13" y2="11.34"/><line class="cls-6" x1="59.79" y1="60.1" x2="53.35" y2="57.37"/><line class="cls-6" x1="52.57" y1="59.21" x2="59.01" y2="61.94"/><line class="cls-5" x1="59.99" y1="42.14" x2="58.08" y2="48.88"/><line class="cls-5" x1="60.01" y1="49.42" x2="61.91" y2="42.69"/><line class="cls-5" x1="49.58" y1="36.79" x2="51.59" y2="43.5"/><line class="cls-5" x1="53.51" y1="42.92" x2="51.49" y2="36.22"/><line class="cls-7" x1="30.03" y1="31.49" x2="33.51" y2="25.42"/><line class="cls-7" x1="31.77" y1="24.43" x2="28.29" y2="30.5"/><line class="cls-5" x1="15.53" y1="24.71" x2="19.96" y2="30.13"/><line class="cls-5" x1="21.51" y1="28.86" x2="17.08" y2="23.44"/><line class="cls-8" x1="7.75" y1="26.52" x2="10.13" y2="33.1"/><line class="cls-8" x1="12.01" y1="32.42" x2="9.63" y2="25.84"/><line class="cls-6" x1="59.72" y1="24.48" x2="58" y2="31.27"/><line class="cls-6" x1="59.94" y1="31.76" x2="61.66" y2="24.97"/><line class="cls-5" x1="43.9" y1="28.11" x2="50.34" y2="30.85"/><line class="cls-5" x1="51.13" y1="29" x2="44.68" y2="26.27"/><line class="cls-7" x1="27.08" y1="58.29" x2="29.09" y2="65"/><line class="cls-7" x1="31.01" y1="64.42" x2="28.99" y2="57.72"/><line class="cls-8" x1="45.98" y1="59.37" x2="39.05" y2="60.34"/><line class="cls-8" x1="39.33" y1="62.32" x2="46.26" y2="61.35"/><line class="cls-5" x1="46.12" y1="47.15" x2="44.56" y2="53.97"/><line class="cls-5" x1="46.51" y1="54.42" x2="48.07" y2="47.6"/><line class="cls-5" x1="27.23" y1="44.22" x2="23.49" y2="50.14"/><line class="cls-5" x1="25.18" y1="51.21" x2="28.92" y2="45.29"/><line class="cls-6" x1="28.9" y1="35.62" x2="22.48" y2="38.42"/><line class="cls-6" x1="23.28" y1="40.26" x2="29.7" y2="37.46"/><line class="cls-5" x1="15.38" y1="41.23" x2="17.29" y2="34.49"/><line class="cls-5" x1="15.36" y1="33.95" x2="13.46" y2="40.69"/><line class="cls-8" x1="40.92" y1="37.84" x2="38.91" y2="31.14"/><line class="cls-8" x1="36.99" y1="31.72" x2="39.01" y2="38.42"/><line class="cls-6" x1="27.21" y1="14.68" x2="21.62" y2="18.89"/><line class="cls-6" x1="22.83" y1="20.49" x2="28.42" y2="16.28"/><line class="cls-8" x1="17.95" y1="14.86" x2="16" y2="8.14"/><line class="cls-8" x1="14.08" y1="8.69" x2="16.02" y2="15.42"/><line class="cls-7" x1="7.41" y1="8.34" x2="7" y2="15.33"/><line class="cls-7" x1="9" y1="15.45" x2="9.4" y2="8.46"/><line class="cls-6" x1="20.26" y1="56.2" x2="16" y2="61.76"/><line class="cls-6" x1="17.59" y1="62.97" x2="21.85" y2="57.41"/><line class="cls-5" x1="12.47" y1="60.61" x2="7.62" y2="55.56"/><line class="cls-5" x1="6.17" y1="56.94" x2="11.02" y2="61.99"/><line class="cls-5" x1="52.51" y1="23.42" x2="56.91" y2="17.98"/><line class="cls-5" x1="55.35" y1="16.72" x2="50.95" y2="22.16"/><line class="cls-7" x1="55.54" y1="13.25" x2="56.32" y2="6.3"/><line class="cls-7" x1="54.33" y1="6.07" x2="53.55" y2="13.03"/><line class="cls-7" x1="32.57" y1="48.21" x2="39.01" y2="50.94"/><line class="cls-7" x1="39.79" y1="49.1" x2="33.35" y2="46.37"/><line class="cls-4" x1="48.03" y1="-3.79" x2="52.46" y2="1.63"/><line class="cls-4" x1="54.01" y1="0.36" x2="49.58" y2="-5.06"/><line class="cls-8" x1="-5.78" y1="4.58" x2="0.39" y2="7.9"/><line class="cls-8" x1="1.33" y1="6.14" x2="-4.83" y2="2.82"/><line class="cls-8" x1="-3.26" y1="25.22" x2="3.26" y2="22.67"/><line class="cls-8" x1="2.53" y1="20.81" x2="-3.99" y2="23.36"/><line class="cls-7" x1="-6.07" y1="33.83" x2="0.76" y2="35.37"/><line class="cls-7" x1="1.2" y1="33.42" x2="-5.62" y2="31.88"/><line class="cls-5" x1="-6.03" y1="55.2" x2="0.76" y2="56.92"/><line class="cls-5" x1="1.25" y1="54.98" x2="-5.53" y2="53.26"/><line class="cls-7" x1="-4.99" y1="65.17" x2="1.66" y2="62.98"/><line class="cls-7" x1="1.03" y1="61.08" x2="-5.62" y2="63.27"/><line class="cls-5" x1="62.45" y1="-3.45" x2="58.97" y2="2.62"/><line class="cls-5" x1="60.71" y1="3.62" x2="64.19" y2="-2.46"/><line class="cls-5" x1="48.03" y1="-3.79" x2="52.46" y2="1.63"/><line class="cls-5" x1="54.01" y1="0.36" x2="49.58" y2="-5.06"/><line class="cls-5" x1="41.75" y1="-1.48" x2="44.13" y2="5.1"/><line class="cls-5" x1="46.01" y1="4.42" x2="43.63" y2="-2.16"/><line class="cls-5" x1="33.22" y1="-4.52" x2="31.5" y2="2.27"/><line class="cls-5" x1="33.44" y1="2.76" x2="35.16" y2="-4.03"/><line class="cls-7" x1="11.86" y1="-5.05" x2="9.96" y2="1.69"/><line class="cls-7" x1="11.88" y1="2.23" x2="13.79" y2="-4.51"/><line class="cls-5" x1="1.86" y1="-4.28" x2="3.88" y2="2.42"/><line class="cls-5" x1="5.79" y1="1.85" x2="3.78" y2="-4.86"/></pattern><pattern id="New_Pattern_Swatch_2" data-name="New Pattern Swatch 2" width="72" height="72" patternTransform="translate(16 -29)" patternUnits="userSpaceOnUse" viewBox="0 0 72 72"><rect class="cls-1" width="72" height="72"/><path class="cls-2" d="M80.4,64.14s1,4.06-2.92,4S73.54,70,74.35,72.43,74.17,77.05,71,77"/><path class="cls-2" d="M8.4,64.14s1,4.06-2.92,4S1.54,70,2.35,72.43,2.17,77.05-1,77"/><path class="cls-2" d="M80.4,64.14s1,4.06-2.92,4S73.54,70,74.35,72.43,74.17,77.05,71,77"/><path class="cls-2" d="M74.88,33.61s-4.15-.44-2.81-4.08-.45-4.34-3-4.38-4.3-1.69-3.2-4.66"/><path class="cls-2" d="M62.12,38.22s3.47-2.32,4.77,1.34S70,42.6,72,41s4.39-1.45,5.45,1.53"/><path class="cls-2" d="M71.68,62.73s-.76,4.1-4.29,2.49-4.36.12-4.59,2.66-2,4.16-4.9,2.84"/><path class="cls-2" d="M55.94,59.43s2.82-3.07,5,.17,3.76,2.22,5.31.18,3.92-2.45,5.65.2"/><path class="cls-2" d="M83.79,52.82s-1.58-3.86-4.7-1.55-4.3.78-5-1.65S71.21,46,68.67,47.85"/><path class="cls-2" d="M66.59,12.82s4.13-.53,3.67,3.32,1.45,4.12,3.94,3.56,4.58.65,4.2,3.79"/><path class="cls-2" d="M65.07,53.84s2.41,3.4,4.93.45,4-1.73,5.29.48,3.58,2.93,5.64.52"/><path class="cls-2" d="M80.4,64.14s1,4.06-2.92,4S73.54,70,74.35,72.43,74.17,77.05,71,77"/><path class="cls-2" d="M13.35,15.53s3.79-1.74,4.5,2.08,2.61,3.5,4.82,2.22,4.56-.73,5.14,2.38"/><path class="cls-2" d="M66,28.74s-2.6,3.26-5,.18-3.91-2-5.31.19-3.74,2.72-5.66.2"/><path class="cls-2" d="M39,29.05s-3.82-1.67-1.45-4.74S38.45,20,36,19.24s-3.59-2.92-1.66-5.42"/><path class="cls-2" d="M41.14,24.82s4.08-.88,2.36-4.36,0-4.36,2.52-4.67,4.1-2.14,2.7-5"/><path class="cls-2" d="M55.12,14.87s4.08-.88,2.36-4.36,0-4.36,2.52-4.66,4.1-2.15,2.7-5"/><path class="cls-2" d="M27.39,34.19s3.68-2,1.07-4.84-1.21-4.19,1.15-5.18S33,21,30.83,18.64"/><path class="cls-2" d="M10.39,22.94s1.29,4-2.58,4.23S4,29.36,5.05,31.7s.21,4.62-2.94,4.84"/><path class="cls-2" d="M7.56,41.16s-2-3.64,1.72-4.64,3.29-2.87,1.85-5-1.09-4.49,2-5.3"/><path class="cls-2" d="M20.44,17s1.35-3.95,4.61-1.83,4.33.52,4.93-2,2.6-3.82,5.26-2.09"/><path class="cls-2" d="M12.33,44.48S10.57,40.7,14.38,40s3.48-2.63,2.19-4.83S15.8,30.57,18.91,30"/><path class="cls-2" d="M24,38.67s-3.43-2.38-.51-4.93,1.68-4-.55-5.28-3-3.55-.58-5.64"/><path class="cls-2" d="M11,59.64s.31-4.16,4-2.94,4.32-.6,4.28-3.15,1.55-4.36,4.55-3.36"/><path class="cls-2" d="M29.5,52.86s-.38,4.15-4,2.87-4.34.52-4.33,3.07-1.64,4.33-4.62,3.27"/><path class="cls-2" d="M19.67,27.31s-4.17.18-3.38-3.62-1.09-4.23-3.62-3.88-4.51-1-3.87-4.14"/><path class="cls-2" d="M32.71,28s-1.49,3.89,2.36,4.35,3.66,2.37,2.54,4.66-.44,4.6,2.7,5"/><path class="cls-2" d="M3.32,45.67s1.92,3.71,4.82,1.13,4.21-1.15,5.17,1.21,3.15,3.39,5.52,1.29"/><path class="cls-2" d="M51,83.38S49.16,79.64,53,78.81,56.36,76.1,55,73.93s-.89-4.54,2.21-5.22"/><path class="cls-2" d="M64.56,10S67,13.34,63.44,14.8s-2.9,3.26-1.21,5.17,1.65,4.32-1.29,5.51"/><path class="cls-2" d="M60,14.27s-4.09.83-2.41,4.33,0,4.36-2.57,4.64-4.12,2.1-2.75,5"/><path class="cls-2" d="M17.08.72s4.16.2,3,3.91.71,4.31,3.26,4.2,4.39,1.44,3.47,4.47"/><path class="cls-2" d="M39.44,15.71s-4-1-2.23-4.42.13-4.36-2.4-4.74-4-2.26-2.55-5"/><path class="cls-2" d="M18,7.9s-4-1.27-4.22,2.6-2.17,3.78-4.52,2.78-4.62-.18-4.82,3"/><path class="cls-2" d="M8.4,64.14s1,4.06-2.92,4S1.54,70,2.35,72.43,2.17,77.05-1,77"/><path class="cls-2" d="M70.32,33.48s-2.27,3.5-4.91.65-4.08-1.56-5.26.7-3.46,3.07-5.62.75"/><path class="cls-2" d="M50.38,1.6s1,4.06-2.92,4-4,1.86-3.14,4.28S44.15,14.5,41,14.45"/><path class="cls-2" d="M43.88,31.8s-1.63-3.83,2.2-4.44,3.57-2.51,2.35-4.75S47.82,18,51,17.53"/><path class="cls-2" d="M74.88,33.61s-4.15-.44-2.81-4.08-.45-4.34-3-4.38-4.3-1.69-3.2-4.66"/><path class="cls-2" d="M62.12,38.22s3.47-2.32,4.77,1.34S70,42.6,72,41s4.39-1.45,5.45,1.53"/><path class="cls-2" d="M71.68,62.73s-.76,4.1-4.29,2.49-4.36.12-4.59,2.66-2,4.16-4.9,2.84"/><path class="cls-2" d="M28.78,44s4.13.55,2.7,4.15.33,4.35,2.88,4.46,4.26,1.81,3.09,4.75"/><path class="cls-2" d="M14.79,43.43s1.2,4,4.54,2,4.34-.36,4.85,2.14,2.46,3.92,5.18,2.29"/><path class="cls-2" d="M1.79,60S3,64,6.33,62s4.34-.36,4.85,2.15,2.46,3.91,5.18,2.29"/><path class="cls-2" d="M37.88,69s4.15-.36,2.88-4,.54-4.33,3.1-4.31,4.33-1.61,3.29-4.6"/><path class="cls-2" d="M34.49,60.09s3.21,2.66.08,5-2,3.87.09,5.31,2.65,3.79.1,5.66"/><path class="cls-2" d="M50.83,63.59s-3.38-2.45-.39-4.93,1.77-4-.42-5.3-2.88-3.62-.44-5.64"/><path class="cls-2" d="M55.94,59.43s2.82-3.07,5,.17,3.76,2.22,5.31.18,3.92-2.45,5.65.2"/><path class="cls-2" d="M40.17,32.48s4.16.24,3,3.94.67,4.31,3.22,4.23,4.38,1.48,3.43,4.5"/><path class="cls-2" d="M31.67,40.41s-.38,4.16,3.45,3.56,4.17,1.31,3.69,3.82.81,4.55,3.94,4.07"/><path class="cls-2" d="M19.47,42.71s1.07-4,4.47-2.16,4.35.21,4.77-2.31,2.33-4,5.1-2.46"/><path class="cls-2" d="M1.21,13.18s4.16-.22,3-3.93S4.92,5,7.47,5.05,11.86,3.59,10.93.57"/><path class="cls-2" d="M35.69,57.65S31.87,56,31.22,59.8s-2.54,3.54-4.78,2.3-4.57-.66-5.1,2.46"/><path class="cls-2" d="M83.79,52.82s-1.58-3.86-4.7-1.55-4.3.78-5-1.65S71.21,46,68.67,47.85"/><path class="cls-2" d="M67.72,48.84s-1,4-4.44,2.21-4.36-.16-4.75,2.36-2.28,4-5.07,2.52"/><path class="cls-2" d="M59.64,60.81s-.13,4.17-3.86,3.11-4.29.78-4.13,3.33-1.37,4.42-4.41,3.55"/><path class="cls-2" d="M51.35,47.94s2-3.65,4.86-1,4.17,1.27,5.19-1.07,3.24-3.3,5.55-1.14"/><path class="cls-2" d="M41.29,59.08s-2-3.68,1.81-4.61,3.33-2.81,1.93-4.95S44,45,47.09,44.25"/><path class="cls-2" d="M62,83.53s-1.29-4,2.58-4.23,3.78-2.19,2.76-4.53-.21-4.62,3-4.84"/><path class="cls-2" d="M46.41,34s4.1-.82,3.89,3.06,1.73,4,4.18,3.28,4.61.34,4.45,3.51"/><path class="cls-2" d="M66.59,12.82s4.13-.53,3.67,3.32,1.45,4.12,3.94,3.56,4.58.65,4.2,3.79"/><path class="cls-2" d="M65.07,53.84s2.41,3.4,4.93.45,4-1.73,5.29.48,3.58,2.93,5.64.52"/><path class="cls-2" d="M45.46,62.83s-3.72,1.88-1.18,4.81S45.39,71.86,43,72.8s-3.42,3.11-1.35,5.5"/><path class="cls-2" d="M28.23,80.31s-3.57-2.15-.81-4.88,1.43-4.13-.87-5.24-3.18-3.36-.93-5.59"/><path class="cls-2" d="M20,65.69s1.2,4-2.68,4.17S13.46,72,14.42,74.32s.1,4.62-3.06,4.76"/><path class="cls-2" d="M2.88,33.61s-4.15-.44-2.81-4.08-.45-4.34-3-4.38-4.3-1.69-3.2-4.66"/><path class="cls-2" d="M-9.88,38.22s3.47-2.32,4.77,1.34S-2,42.6,0,41s4.39-1.45,5.45,1.53"/><path class="cls-2" d="M-.32,62.73s-.76,4.1-4.29,2.49S-9,65.34-9.2,67.88s-2,4.16-4.9,2.84"/><path class="cls-2" d="M-16.06,59.43s2.82-3.07,4.95.17,3.76,2.22,5.31.18,3.92-2.45,5.65.2"/><path class="cls-2" d="M11.79,52.82S10.21,49,7.09,51.27s-4.3.78-5-1.65S-.79,46-3.33,47.85"/><path class="cls-2" d="M-5.41,12.82s4.13-.53,3.67,3.32S-.29,20.26,2.2,19.7s4.58.65,4.2,3.79"/><path class="cls-2" d="M-6.93,53.84s2.41,3.4,4.93.45,4-1.73,5.29.48,3.58,2.93,5.64.52"/><path class="cls-2" d="M80.4-7.86s1,4.06-2.92,4S73.54-2,74.35.43,74.17,5.05,71,5"/><g class="cls-3"><path class="cls-2" d="M51,11.38S49.16,7.64,53,6.81,56.36,4.1,55,1.93s-.89-4.54,2.21-5.22"/><path class="cls-2" d="M8.4-7.86s1,4.06-2.92,4S1.54-2,2.35.43,2.17,5.05-1,5"/><path class="cls-2" d="M34.49-11.91s3.21,2.66.08,5-2,3.87.09,5.31,2.65,3.79.1,5.66"/><path class="cls-2" d="M62,11.53s-1.29-4,2.58-4.23,3.78-2.19,2.76-4.53-.21-4.62,3-4.84"/><path class="cls-2" d="M45.46-9.17s-3.72,1.88-1.18,4.81S45.39-.14,43,.8s-3.42,3.11-1.35,5.5"/><path class="cls-2" d="M28.23,8.31s-3.57-2.15-.81-4.88,1.43-4.13-.87-5.24-3.18-3.36-.93-5.59"/><path class="cls-2" d="M20-6.31s1.2,4-2.68,4.17S13.46,0,14.42,2.32s.1,4.62-3.06,4.76"/></g><path class="cls-2" d="M8.4,64.14s1,4.06-2.92,4S1.54,70,2.35,72.43,2.17,77.05-1,77"/><path class="cls-2" d="M2.88,33.61s-4.15-.44-2.81-4.08-.45-4.34-3-4.38-4.3-1.69-3.2-4.66"/><path class="cls-2" d="M-9.88,38.22s3.47-2.32,4.77,1.34S-2,42.6,0,41s4.39-1.45,5.45,1.53"/><path class="cls-2" d="M-.32,62.73s-.76,4.1-4.29,2.49S-9,65.34-9.2,67.88s-2,4.16-4.9,2.84"/><path class="cls-2" d="M-16.06,59.43s2.82-3.07,4.95.17,3.76,2.22,5.31.18,3.92-2.45,5.65.2"/><path class="cls-2" d="M11.79,52.82S10.21,49,7.09,51.27s-4.3.78-5-1.65S-.79,46-3.33,47.85"/><path class="cls-2" d="M-5.41,12.82s4.13-.53,3.67,3.32S-.29,20.26,2.2,19.7s4.58.65,4.2,3.79"/><path class="cls-2" d="M-6.93,53.84s2.41,3.4,4.93.45,4-1.73,5.29.48,3.58,2.93,5.64.52"/><path class="cls-2" d="M8.4-7.86s1,4.06-2.92,4S1.54-2,2.35.43,2.17,5.05-1,5"/><path class="cls-2" d="M80.4-7.86s1,4.06-2.92,4S73.54-2,74.35.43,74.17,5.05,71,5"/><path class="cls-2" d="M80.4-7.86s1,4.06-2.92,4S73.54-2,74.35.43,74.17,5.05,71,5"/><path class="cls-2" d="M51,11.38S49.16,7.64,53,6.81,56.36,4.1,55,1.93s-.89-4.54,2.21-5.22"/><path class="cls-2" d="M8.4-7.86s1,4.06-2.92,4S1.54-2,2.35.43,2.17,5.05-1,5"/><path class="cls-2" d="M34.49-11.91s3.21,2.66.08,5-2,3.87.09,5.31,2.65,3.79.1,5.66"/><path class="cls-2" d="M62,11.53s-1.29-4,2.58-4.23,3.78-2.19,2.76-4.53-.21-4.62,3-4.84"/><path class="cls-2" d="M45.46-9.17s-3.72,1.88-1.18,4.81S45.39-.14,43,.8s-3.42,3.11-1.35,5.5"/><path class="cls-2" d="M28.23,8.31s-3.57-2.15-.81-4.88,1.43-4.13-.87-5.24-3.18-3.36-.93-5.59"/><path class="cls-2" d="M20-6.31s1.2,4-2.68,4.17S13.46,0,14.42,2.32s.1,4.62-3.06,4.76"/><path class="cls-2" d="M8.4-7.86s1,4.06-2.92,4S1.54-2,2.35.43,2.17,5.05-1,5"/></pattern></defs><title>billboard-3</title><path class="cls-9" d="M662.8,440.18c.08-.43.57-.66.74-.74a1.85,1.85,0,0,1,1.48,0c.56.25.43.55,1.12,1.11s1.25.56,1.48,1.11a.9.9,0,0,1,0,.75c-.27.37-1.08.18-1.86,0a4.91,4.91,0,0,1-1.85-.75C663.5,441.37,662.69,440.79,662.8,440.18Z" transform="translate(-645 -364)"/><rect class="cls-10" x="4" y="4" width="105" height="97"/><rect class="cls-11" x="8" y="8" width="97" height="89"/><polygon class="cls-12" points="16 83.97 16 22 23.03 22 26.3 26 86.05 27 91.03 22 98 22 98 82 90.03 82 81.07 77 27.3 79 23.03 83.97 16 83.97"/><path class="cls-13" d="M677.56,391.38a27.52,27.52,0,0,1,10.72,4.87A30.75,30.75,0,0,1,695.1,404a26.15,26.15,0,0,1,3.9,11.69,25,25,0,0,1-9.74,21.43c-2.45,1.78-7.16,2.81-16.57,4.87-6.1,1.33-9.64,1.65-10.72,0-.68-1,0-2.47,0-2.92,0-20.46-1-29.16-1-41.89C661,389.43,676.14,391,677.56,391.38Z" transform="translate(-645 -364)"/><ellipse class="cls-14" cx="73" cy="37" rx="11" ry="5"/><path class="cls-15" d="M716,399c.35.35-.29.35-1,0-.29-.14-.94-.47-1-1-.11-1,1.89-1.95,2-2,1-.48,1.71-.41,2-1a1.17,1.17,0,0,0,0-1c-.43-.81-1.89-.53-2-1-.07-.31.46-.77,1-1,1.35-.57,2.87.33,4,1,1,.57,2.1,1.24,2,2s-1,1-1,1c-.74.29-1-.14-2,0a5,5,0,0,0-2,1c-.83.55-1,1-2,1C716,398,715,398,716,399Z" transform="translate(-645 -364)"/><path class="cls-15" d="M719,399s-.79.21-1,0,0-1,0-1c.43-.85,1.76-1,2-1,1-.09,1.35.27,2,0s1.67-.24,2-1a1.47,1.47,0,0,0,0-1c-.28-.69-1-.79-1-1s1.15-.49,2,0a1.9,1.9,0,0,1,1,2c-.14.35-.4.35-2,1s-2.17,1-3,1-1,0-1,0c-.6,0-.84-.14-1,0s-.2.35,0,1" transform="translate(-645 -364)"/><path class="cls-15" d="M721,431c1.7-.81,4.69,1,5,1,.75-.1,1.5-1.07,3-1,2.25.1,2.46.26,3,0,1.14-.54.93-1.58,2-2a2.56,2.56,0,0,1,3,1c.32.75-.37,1.3,0,2s1,.47,2,1c1.29.71,2.34,2.25,2,3-.22.48-.85.27-3,1-1.54.52-1.87.85-2,1-.73.81-.39,1.49-1,2-.2.17-.67.46-3,0-2-.4-2.27-.73-4-1a5.44,5.44,0,0,0-3,0c-1,.4-1.22,1-2,1s-.92-.75-2-1-1.39.29-2,0c-.82-.38-1.25-1.84-1-3C718.39,434.19,718.39,432.24,721,431Z" transform="translate(-645 -364)"/><polygon class="cls-16" points="58.61 64 55.39 64 52.61 65.61 51 68.39 51 71.61 52.61 74.39 55.39 76 58.61 76 61.39 74.39 63 71.61 63 68.39 61.39 65.61 58.61 64"/><path class="cls-15" d="M667,391a7.63,7.63,0,0,1,3,0,3.54,3.54,0,0,1,2,1c.75.87.47,1.81,1,2s1-.95,2-1c1.16-.06,1.38,1.52,3,2s2.77-.42,3,0-1.25,1.39-1,2,2.83-.27,4,1c.6.65.24,1.26,1,2s1.34.36,2,1c1,.93.14,2.11,1,3s2.35.09,3,1c.15.21.16.36,0,3a5.94,5.94,0,0,0,0,2c.28,1,.81,1.06,1,2s-.34,1.44,0,2c.49.8,1.93.54,2,1,0,.26-.43.38-1,1a4.66,4.66,0,0,0-1,2c-.24,1.15.29,1.31,0,2-.43,1-1.71.93-2,2a9.25,9.25,0,0,0,0,1c0,1.78,0,1.87,0,2a4.43,4.43,0,0,1-1,2,6.23,6.23,0,0,1-2,2c-1.53.87-2.51.26-3,1s.61,1.86,0,3a1.92,1.92,0,0,1-2,1c-.53-.17-.45-.69-1-1a2.43,2.43,0,0,0-3,1c-.31.74.34,1.22,0,2a1.77,1.77,0,0,1-2,1c-.76-.36-.52-1.93-1-2-.21,0-.34.27-1,1a5.73,5.73,0,0,1-1,1c-.48.27-1.33.18-3,0-.68-.07-.81-.1-1,0-.54.29-.37,1-1,2-.33.54-.59.95-1,1-.63.08-.89-.78-2-1a2.7,2.7,0,0,0-1,0c-1.22.2-1.65,1.08-2,1-1-.22-1-12.35-1-13V395a4.42,4.42,0,0,1,2-3C663.85,391.42,664.9,391.28,667,391Z" transform="translate(-645 -364)"/><path class="cls-17" d="M667,391a7.63,7.63,0,0,1,3,0,3.54,3.54,0,0,1,2,1c.75.87.47,1.81,1,2s1-.95,2-1c1.16-.06,1.38,1.52,3,2s2.77-.42,3,0-1.25,1.39-1,2,2.83-.27,4,1c.6.65.24,1.26,1,2s1.34.36,2,1c1,.93.14,2.11,1,3s2.35.09,3,1c.15.21.16.36,0,3a5.94,5.94,0,0,0,0,2c.28,1,.81,1.06,1,2s-.34,1.44,0,2c.49.8,1.93.54,2,1,0,.26-.43.38-1,1a4.66,4.66,0,0,0-1,2c-.24,1.15.29,1.31,0,2-.43,1-1.71.93-2,2a9.25,9.25,0,0,0,0,1c0,1.78,0,1.87,0,2a4.43,4.43,0,0,1-1,2,6.23,6.23,0,0,1-2,2c-1.53.87-2.51.26-3,1s.61,1.86,0,3a1.92,1.92,0,0,1-2,1c-.53-.17-.45-.69-1-1a2.43,2.43,0,0,0-3,1c-.31.74.34,1.22,0,2a1.77,1.77,0,0,1-2,1c-.76-.36-.52-1.93-1-2-.21,0-.34.27-1,1a5.73,5.73,0,0,1-1,1c-.48.27-1.33.18-3,0-.68-.07-.81-.1-1,0-.54.29-.37,1-1,2-.33.54-.59.95-1,1-.63.08-.89-.78-2-1a2.7,2.7,0,0,0-1,0c-1.22.2-1.65,1.08-2,1-1-.22-1-12.35-1-13V395a4.42,4.42,0,0,1,2-3C663.85,391.42,664.9,391.28,667,391Z" transform="translate(-645 -364)"/><path class="cls-9" d="M661,403c0-3,1-4.74,1-4a22.63,22.63,0,0,0,3,0c1.2-.08,1.49-.2,2,0,1.12.44.94,1.47,2,2,.85.42,1.21-.12,3,0,1.1.07,2.48.16,3,1,.66,1.05-.59,2.36,0,3s1.83-.49,4,0a3.46,3.46,0,0,1,2,1c.63.74.35,1.32,1,2s1.44.37,2,1c.72.81-.07,1.9,0,4s.8,1.86,1,4a7.82,7.82,0,0,1-1,5,6.7,6.7,0,0,1-2,2c-3.06,2-5.63.05-8,2-1.08.88-.91,1.58-2,2-.83.32-1.3.07-4,0a18.47,18.47,0,0,0-2,0c-2.5.18-5,1.66-5,1Z" transform="translate(-645 -364)"/><ellipse class="cls-14" cx="23.5" cy="46.5" rx="5.5" ry="4.5"/><path class="cls-15" d="M674,419a3.88,3.88,0,0,0,0-3c-.36-.74-.78-.76-2-2s-1.43-2-2-2c-1-.05-2.43,1.87-2,3s2.12.62,3,2c.57.89.59,1.22,0,2-.3.39-.72.6-3,1-3,.52-3.64,1.42-4,2a2.44,2.44,0,0,0,1,3c.17.08.41.1,2.16-.42.8-.23,1.22-.38,1.84-.58,2.59-.84,2.66-.63,3-1,.73-.79.88-2,1.63-2.06a.82.82,0,0,1,.37.06c1,.25,2.82-1.6,4-4,.78-1.58,2.24-4.55,1-6-.17-.2-1.45-.47-4-1a4.44,4.44,0,0,0-3,0,1.78,1.78,0,0,0-1,1,1.75,1.75,0,0,0,1,2c.17.06.19,0,1,0,1.25,0,1.18.06,2,0s.84-.12,1,0c.43.33.17,1.32,0,2a5.87,5.87,0,0,1-1,2,2.88,2.88,0,0,1-.36.39,3.34,3.34,0,0,0-.47.4,1.73,1.73,0,0,0-.17.21" transform="translate(-645 -364)"/><path class="cls-15" d="M676,421c.42.78,2.52.77,4,0,2.91-1.52,3-5.79,3-6a10.15,10.15,0,0,0-1-4c-.69-1.76-1.08-2.76-2-3-1.32-.35-3.09,1-3,2s1.41.74,2,2c.33.7,0,.9,0,3a14,14,0,0,1,0,3c-.16.82-.54,2-1,2s-.54-1-1-1S675.64,420.33,676,421Z" transform="translate(-645 -364)"/><path class="cls-18" d="M665.71,421.57c.15.39.9.51,1.3,1,.52.6.1,2.07.54,2.33.25.15.57-.35.86-.24s-.57-.94-.49-1.76c.05-.6-.63-3.05-1.59-2.78A1.51,1.51,0,0,0,665.71,421.57Z" transform="translate(-645 -364)"/><path class="cls-18" d="M668.71,420.57c.15.39.9.51,1.3,1,.52.6.1,2.07.54,2.33.25.15.57-.35.86-.24s-.57-.94-.49-1.76c.05-.6-.63-3.05-1.59-2.78A1.51,1.51,0,0,0,668.71,420.57Z" transform="translate(-645 -364)"/><path class="cls-18" d="M680.9,410.27c-.39.15-.52.9-1,1.29s-2.07.07-2.34.5c-.16.25.34.58.22.86s1-.55,1.77-.46c.6.07,3.06-.57,2.81-1.54C682.28,410.52,681.29,410.12,680.9,410.27Z" transform="translate(-645 -364)"/><path class="cls-18" d="M681.62,413.35c-.36.14-.47.88-.89,1.26s-1.91,0-2.16.45c-.14.25.33.58.23.87s.87-.53,1.63-.43c.56.08,2.83-.52,2.57-1.48A1.4,1.4,0,0,0,681.62,413.35Z" transform="translate(-645 -364)"/><path class="cls-18" d="M682.09,416.56c-.34,0-.66.68-1.12.9-.62.29-1.6-.61-1.93-.29s.08.66-.09.89.89-.21,1.49.14c.43.25,2.5.45,2.59-.55C683.07,417.25,682.44,416.54,682.09,416.56Z" transform="translate(-645 -364)"/><path class="cls-18" d="M680.07,420.08c-.16-.08-.72.35-1.07.39s-.36-.92-.71-.76c-.2.09-.36.54-.59.67s.54.08.6.52a.9.9,0,0,0,1.53.3C680.1,420.89,680.24,420.16,680.07,420.08Z" transform="translate(-645 -364)"/><path class="cls-18" d="M671.89,417.82c.25-.11.3-.93.59-1.3s1.38.27,1.54-.17c.1-.25-.25-.71-.19-1s-.61.46-1.17.22c-.4-.17-2,.14-1.8,1.27C671,417.3,671.63,417.92,671.89,417.82Z" transform="translate(-645 -364)"/><path class="cls-18" d="M675.22,417.13c.26.09.84-.5,1.3-.58s.86,1.12,1.27.89c.24-.13.28-.7.52-.89s-.76-.05-1-.6c-.19-.4-1.61-1.23-2.2-.24C674.85,416.12,675,417,675.22,417.13Z" transform="translate(-645 -364)"/><path class="cls-18" d="M676.22,414.13c.26.09.84-.5,1.3-.58s.86,1.12,1.27.89c.24-.13.28-.7.52-.89s-.76-.05-1-.6c-.19-.4-1.61-1.23-2.2-.24C675.85,413.12,676,414,676.22,414.13Z" transform="translate(-645 -364)"/><path class="cls-18" d="M674.12,418.77c.22.15.94-.25,1.4-.2s.52,1.31,1,1.21c.27-.06.46-.6.75-.72s-.72-.26-.82-.86c-.07-.43-1.21-1.63-2-.83C674,417.7,673.89,418.61,674.12,418.77Z" transform="translate(-645 -364)"/><path class="cls-18" d="M671,420.09c.22.1.84-.43,1.27-.5s.59,1.11,1,.91c.24-.11.37-.66.62-.83s-.68-.08-.83-.61-1.25-1.25-1.94-.32C670.87,419.12,670.82,420,671,420.09Z" transform="translate(-645 -364)"/><path class="cls-14" d="M661,431c0-.64.79-.85,1-1a5.53,5.53,0,0,1,3-1c.8-.06,2.16-.08,6,1,2.5.7,2.78.95,4,1a5.55,5.55,0,0,0,4-1c.61-.55.74-1.06,1-1,.52.11.87,2.27,0,4a4.4,4.4,0,0,1-2,2c-1,.49-2,.33-4,0a36.13,36.13,0,0,1-4-1c-3.22-.92-3.29-1.08-4-1a6.84,6.84,0,0,0-4,2c-.61.64-.73,1.05-1,1C660.3,435.88,661,434,661,431Z" transform="translate(-645 -364)"/><text class="cls-19" transform="translate(59.29 50.77)"><tspan class="cls-20">P</tspan><tspan x="3.82" y="0">ANCIT</tspan><tspan x="0" y="9.6">CANTON</tspan></text><text class="cls-21" transform="translate(65 38.52) scale(1.1 1)">LUCKY ME!</text><text class="cls-22" transform="translate(78 70.42) scale(1.18 1)">KALAMANSI <tspan x="0" y="1.96">FLAVOR</tspan></text><rect class="cls-18" x="27" y="105" width="3" height="63"/><rect class="cls-18" x="74" y="105" width="3" height="63"/></svg>