<svg id="billboard-1" xmlns="http://www.w3.org/2000/svg" viewBox="0 0 76 202.5"><defs><style>.cls-1{fill:#fff;stroke-width:5px;}.cls-1,.cls-3{stroke:#adc5e7;}.cls-1,.cls-3,.cls-5{stroke-miterlimit:10;}.cls-2,.cls-3{fill:#406ab3;}.cls-3{stroke-width:3px;}.cls-4{fill:#18305d;}.cls-5{fill:#fcd3d3;stroke:#f47053;}.cls-6{fill:#adc5e7;}</style></defs><title>billboard-1</title><rect class="cls-1" x="2.5" y="2.5" width="71" height="77"/><path class="cls-2" d="M219,356" transform="translate(-184.5 -330.5)"/><path class="cls-3" d="M188.5,359.26c0-4.74,7.86,5.3,9,6.5,4.93,5.19,4.48,9.67,9,14.31,3.09,3.16,6.1,3.94,11,5.2,10.08,2.59,13.95-4,20,0,3.91,2.6,3.94,6.19,7,6.5,5.36.53,11-11.7,11-9.1v24.7h-33c-34,0-34,1.3-34,0Z" transform="translate(-184.5 -330.5)"/><ellipse class="cls-4" cx="36.5" cy="21" rx="4" ry="2.5"/><path class="cls-4" d="M225,365.09c2,1.14,2,2.3,3,3.45a15,15,0,0,1,2.92,9.26c-.18,3.25-.59,3.69-.29,8.13,0,.16.14,1.32.41,3.63.66,5.76.88,7.53-.12,9.07a4.15,4.15,0,0,1-1.21,1.23c-.51.32-2.4-.06-5.11.29-5.17.66-8.52,1.09-10.11-.7-.91-1-.87-2.31-.81-4.71a96.35,96.35,0,0,0-.79-15.58c-.46-6.24,2.78-9.91,4.12-11.66C219.08,364.74,221.54,363.12,225,365.09Z" transform="translate(-184.5 -330.5)"/><path class="cls-5" d="M213,378c0,2.14.07,4.57.5,5.5,2.53,5.45,18,8.79,18,5,0-2,.61-3.62-.5-4.5-.85-.67-1.66-.39-3.5-.5a18.65,18.65,0,0,1-7-2,17.38,17.38,0,0,1-4-3c-1.7-1.72-2.41-3.2-3-3S213,377.06,213,378Z" transform="translate(-184.5 -330.5)"/><path class="cls-4" d="M217,351h8v19h-8Z" transform="translate(-184.5 -330.5)"/><path class="cls-5" d="M216.5,363.5c0-1.22,1.94-.69,4,0,3,1,5-2,5,0v2c0,1.27-1.44,2.06-5,2-2.93-.05-4-.91-4-2Z" transform="translate(-184.5 -330.5)"/><circle class="cls-1" cx="13.75" cy="16.75" r="2.25"/><circle class="cls-1" cx="21" cy="29" r="1"/><circle class="cls-1" cx="59" cy="41" r="1"/><circle class="cls-2" cx="26.5" cy="18.5" r="1.5"/><circle class="cls-2" cx="22.5" cy="38.5" r="2"/><circle class="cls-2" cx="51.5" cy="46.5" r="2"/><circle class="cls-2" cx="66" cy="49" r="2.5"/><rect class="cls-4" x="19.5" y="79.5" width="4" height="123"/><rect class="cls-4" x="49.5" y="79.5" width="4" height="122"/><path class="cls-6" d="M218,352a2,2,0,0,0,1,1,4.07,4.07,0,0,0,3,0c1.05-.29,2.05-.83,2-1s-.29,0-1,0a9.36,9.36,0,0,1-2,0c-.84-.21-.87-.68-2-1-.74-.21-.94-.06-1,0C217.72,351.28,218,351.92,218,352Z" transform="translate(-184.5 -330.5)"/><path class="cls-6" d="M220.5,369.5c.3-.4,1.37.49,3,0,1.17-.35,1.26-1,2-1,1.78,0,2.95,3.84,3,4,.14.48,1,3.37,0,4-.84.53-2.53-.83-4-2C222.18,372.64,220,370.11,220.5,369.5Z" transform="translate(-184.5 -330.5)"/><path class="cls-6" d="M216.14,391c.49-.07.63,1,2.31,2.31,1.22,1,1.62.8,2.31,1.54,1.42,1.52,1.54,4.19.77,4.63-.45.25-.87-.47-2.31-.77-1.68-.36-2.32.36-3.08,0C214.18,397.8,214.93,391.22,216.14,391Z" transform="translate(-184.5 -330.5)"/></svg>