<svg id="billboard-4" xmlns="http://www.w3.org/2000/svg" viewBox="0 0 114 193"><defs><style>.cls-1{fill:#fcd3d3;}.cls-2{fill:#fff;}.cls-3,.cls-6{fill:#18305d;}.cls-4{fill:#adc5e7;}.cls-5{fill:#f47053;}.cls-6{stroke:#fcd3d3;stroke-miterlimit:10;stroke-width:0.5px;}.cls-7{fill:#f7f9f8;}.cls-8{fill:#f3f4ef;}</style></defs><title>billboard-4</title><rect class="cls-1" width="114" height="193"/><rect class="cls-2" x="9" y="9" width="98" height="175"/><path class="cls-3" d="M787,378" transform="translate(-722 -311)"/><path class="cls-3" d="M748,451c0-8-.12-13.85,0-18,1-36-4.39-80.53-1-81a14.51,14.51,0,0,1,2,1l4,2c6.09,3,23,4,23,4,24.73,1.41,23,2,29,0,2.84-.95,8-3.51,10-2,.58.44,1,3.12,1,5,0,5-.85,5.77-1,8v25c-.06,4.38-.13,5.45,0,8a77.84,77.84,0,0,0,1,9c2.31,14.44-.35,15.31,2,27,.89,4.45,2.08,8.31,0,12a12.28,12.28,0,0,1-4,4c-3.8,2.66-7.68,3.43-12,4a113.51,113.51,0,0,1-17,1,103.4,103.4,0,0,1-19-2C755.86,455.92,748,455.78,748,451Z" transform="translate(-722 -311)"/><path class="cls-4" d="M746,351c-.18-.47-1-2.52,0-4,.21-.32.73-1,4-2a35.86,35.86,0,0,1,4-1,61.67,61.67,0,0,1,7-1,101.11,101.11,0,0,1,14,0c3.83.2,6.94.47,13,1,9.33.82,12.62,1.25,16,2,6.46,1.42,6.2,2.42,9,3a3.89,3.89,0,0,1,2,1,3.54,3.54,0,0,1,1,2,4.22,4.22,0,0,1-1,3c-1.85,2.52-5.5,3.43-8,4-5.3,1.21-8,1.81-11,2-5.45.34-8.31,0-20-1-9.78-.81-12.32-.94-17-2C749.82,355.91,747,353.51,746,351Z" transform="translate(-722 -311)"/><circle class="cls-2" cx="49.5" cy="56.5" r="2.5"/><path class="cls-1" d="M747,375c1.15-1.19,5.45,2.73,12,5,2.3.8,6.2,1.2,14,2,3.24.33,7.39.75,13,1a103.7,103.7,0,0,0,14,0c4-.32,10.31-.86,13-3,0,0,1.65-1.32,2-1,.11.1,0,.29,0,1s0,.82,0,1c-.15.95-2.42,1.27-5,2-1.64.46-1.71.62-3,1-2.46.73-4.71.93-11,1-3.17,0-2.92,0-8,0-6.26,0-6.25.09-8,0-2-.1-4.35-.4-9-1-3.61-.46-5.42-.7-7-1-1.15-.22-.66-.16-8-2,0,0-.28-.07-6-2-1.25-.42-2.5-.86-3-2C746.76,376.45,746.57,375.45,747,375Z" transform="translate(-722 -311)"/><path class="cls-1" d="M747,379c1.15-1.19,5.45,2.73,12,5,2.3.8,6.2,1.2,14,2,3.24.33,7.39.75,13,1a103.7,103.7,0,0,0,14,0c4-.32,10.31-.86,13-3,0,0,1.65-1.32,2-1,.11.1,0,.29,0,1s0,.82,0,1c-.15.95-2.42,1.27-5,2-1.64.46-1.71.62-3,1-2.46.73-4.71.93-11,1-3.17,0-2.92,0-8,0-6.26,0-6.25.09-8,0-2-.1-4.35-.4-9-1-3.61-.46-5.42-.7-7-1-1.15-.22-.66-.16-8-2,0,0-.28-.07-6-2-1.25-.42-2.5-.86-3-2C746.76,380.45,746.57,379.45,747,379Z" transform="translate(-722 -311)"/><path class="cls-1" d="M749,434c1.15-1.19,5.45,2.73,12,5,2.3.8,6.2,1.2,14,2,3.24.33,7.39.75,13,1a103.7,103.7,0,0,0,14,0c4-.32,10.31-.86,13-3,0,0,1.65-1.32,2-1,.11.1,0,.29,0,1s0,.82,0,1c-.15.95-2.42,1.27-5,2-1.64.46-1.71.62-3,1-2.46.73-4.71.93-11,1-3.17,0-2.92,0-8,0-6.26,0-6.25.09-8,0-2-.1-4.35-.4-9-1-3.61-.46-5.42-.7-7-1-1.15-.22-.66-.16-8-2,0,0-.28-.07-6-2-1.25-.42-2.5-.86-3-2C748.76,435.45,748.57,434.45,749,434Z" transform="translate(-722 -311)"/><path class="cls-1" d="M749,439c1.15-1.19,5.45,2.73,12,5,2.3.8,6.2,1.2,14,2,3.24.33,7.39.75,13,1a103.7,103.7,0,0,0,14,0c4-.32,10.31-.86,13-3,0,0,1.65-1.32,2-1,.11.1,0,.29,0,1s0,.82,0,1c-.15.95-2.42,1.27-5,2-1.64.46-1.71.62-3,1-2.46.73-4.71.93-11,1-3.17,0-2.92,0-8,0-6.26,0-6.25.09-8,0-2-.1-4.35-.4-9-1-3.61-.46-5.42-.7-7-1-1.15-.22-.66-.16-8-2,0,0-.28-.07-6-2-1.25-.42-2.5-.86-3-2C748.76,440.45,748.57,439.45,749,439Z" transform="translate(-722 -311)"/><circle class="cls-5" cx="57.5" cy="105.5" r="20.5"/><path class="cls-4" d="M753,392c-1.24,1.17.68,5.18,3,10a54.64,54.64,0,0,0,7,11c3.14,3.84,7.47,9.13,15,13,4,2.06,7.25,2.85,12,4,5.79,1.4,8.75,2.08,12,1,.55-.18,6.44-2.23,8-7,.57-1.73.09-2.37,1-4,1.48-2.65,3.92-3.05,4-5,0-1-.53-2-1-2-.81,0-1.06,2.92-2,3-1.27.11-2.51-5.11-3-5s.39,2.74,0,6c-.22,1.88-.66,5.53-3,7-2.8,1.75-7-.45-10-2a32.57,32.57,0,0,1-8-6s-2.94-2.87-14-12C767.92,399,755.36,389.78,753,392Z" transform="translate(-722 -311)"/><circle class="cls-6" cx="37" cy="86" r="1"/><polygon class="cls-2" points="33 67 33 56 32 56 32 53 39 53 39 56 36 56 37 56 37 67 39 67 39 64 43 64 43 71 32 71 32 67 33 67"/><polygon class="cls-2" points="45.32 60 52 60 52 68 55 68 55 71 45 71 45 68 47 68 47 63 45.32 63 45.32 60"/><ellipse class="cls-7" cx="64" cy="77.5" rx="6" ry="5.5"/><ellipse class="cls-3" cx="64" cy="77.5" rx="2" ry="1.5"/><ellipse class="cls-7" cx="64.5" cy="68" rx="7.5" ry="6"/><ellipse class="cls-3" cx="64.5" cy="68" rx="2.5" ry="2"/><polygon class="cls-7" points="64 67 68.43 62.91 70.43 63.92 66 68 64 67"/><polygon class="cls-7" points="68 63.33 70 61 72 62 69.53 65 68 63.33"/><ellipse class="cls-8" cx="80" cy="68.5" rx="6" ry="5.5"/><ellipse class="cls-3" cx="80" cy="68.5" rx="2" ry="1.5"/><polygon class="cls-1" points="22 32 13 18 16 11 28.64 29.65 22 32"/><polygon class="cls-5" points="35 30 31 17 38 16 41 29 35 30"/><polygon class="cls-5" points="21 38 13 37 13 44 20 43 21 38"/><polygon class="cls-1" points="44 154 40 180 54 180 52 155 44 154"/><polygon class="cls-5" points="59 156 61 174 72 173 64 156 59 156"/><polygon class="cls-4" points="14 170 22.99 177 37 152 31 148 14 170"/><polygon class="cls-4" points="75 155 84 173 94 168 81 154 75 155"/><polygon class="cls-5" points="91 150 97 146 103 149 103 163 91 150"/><polygon class="cls-5" points="88.79 32.09 93.53 37.34 105.11 20.34 97.46 16.22 88.79 32.09"/><polygon class="cls-1" points="84 32 91 17.23 82.6 16 77 32 84 32"/><polygon class="cls-4" points="64.5 28.23 72 30 78 17 74 16 64.5 28.23"/><polygon class="cls-4" points="47 28 53 28 51 11 43 11 47 28"/><path class="cls-4" d="M778,338" transform="translate(-722 -311)"/><polygon class="cls-5" points="61.81 27 65 16.5 58 15 56 27 61.81 27"/></svg>