<svg id="billboard-2" xmlns="http://www.w3.org/2000/svg" xmlns:xlink="http://www.w3.org/1999/xlink" viewBox="0 0 235 91"><defs><style>.cls-1,.cls-14,.cls-2{fill:none;}.cls-2,.cls-3{stroke:#fff;stroke-width:7.2px;}.cls-13,.cls-3{fill:#f47053;}.cls-4{fill:#f37154;}.cls-10,.cls-5{fill:#fff;}.cls-6{fill:#fcd3d3;}.cls-7{fill:#adc5e7;}.cls-8{fill:#406ab3;}.cls-9{fill:url(#_6_lpi_60_2);}.cls-10,.cls-14{stroke:#18305d;stroke-miterlimit:10;stroke-width:0.5px;}.cls-11{fill:#18305d;}.cls-12{fill:#fffefc;}</style><pattern id="_6_lpi_60_2" data-name="6 lpi 60% 2" width="72" height="72" patternTransform="translate(-397 -484)" patternUnits="userSpaceOnUse" viewBox="0 0 72 72"><rect class="cls-1" width="72" height="72"/><line class="cls-2" x1="71.75" y1="66" x2="144.25" y2="66"/><line class="cls-2" x1="71.75" y1="42" x2="144.25" y2="42"/><line class="cls-2" x1="71.75" y1="18" x2="144.25" y2="18"/><line class="cls-2" x1="71.75" y1="54" x2="144.25" y2="54"/><line class="cls-2" x1="71.75" y1="30" x2="144.25" y2="30"/><line class="cls-3" x1="71.75" y1="6" x2="144.25" y2="6"/><line class="cls-2" x1="-0.25" y1="66" x2="72.25" y2="66"/><line class="cls-2" x1="-0.25" y1="42" x2="72.25" y2="42"/><line class="cls-2" x1="-0.25" y1="18" x2="72.25" y2="18"/><line class="cls-2" x1="-0.25" y1="54" x2="72.25" y2="54"/><line class="cls-2" x1="-0.25" y1="30" x2="72.25" y2="30"/><line class="cls-3" x1="-0.25" y1="6" x2="72.25" y2="6"/><line class="cls-2" x1="-72.25" y1="66" x2="0.25" y2="66"/><line class="cls-2" x1="-72.25" y1="42" x2="0.25" y2="42"/><line class="cls-2" x1="-72.25" y1="18" x2="0.25" y2="18"/><line class="cls-2" x1="-72.25" y1="54" x2="0.25" y2="54"/><line class="cls-2" x1="-72.25" y1="30" x2="0.25" y2="30"/><line class="cls-3" x1="-72.25" y1="6" x2="0.25" y2="6"/></pattern></defs><title>billboard-2</title><rect class="cls-4" width="235" height="91"/><rect class="cls-5" x="5" y="5" width="224" height="80"/><polygon class="cls-4" points="103 85 99 85 65 5 70 5 103 85"/><polygon class="cls-6" points="120 85 116 85 82 5 87 5 120 85"/><polygon class="cls-7" points="111 85 107 85 73 5 78 5 111 85"/><polygon class="cls-4" points="129 85 125 85 91 5 96 5 129 85"/><polygon class="cls-6" points="146 85 142 85 108 5 113 5 146 85"/><polygon class="cls-7" points="137 85 133 85 99 5 104 5 137 85"/><polygon class="cls-4" points="155 85 151 85 117 5 122 5 155 85"/><polygon class="cls-6" points="172 85 168 85 134 5 139 5 172 85"/><polygon class="cls-7" points="163 85 159 85 125 5 130 5 163 85"/><polygon class="cls-4" points="180 85 176 85 142 5 147 5 180 85"/><polygon class="cls-6" points="197 85 193 85 159 5 164 5 197 85"/><polygon class="cls-7" points="188 85 184 85 150 5 155 5 188 85"/><polygon class="cls-4" points="205 85 201 85 167 5 172 5 205 85"/><polygon class="cls-6" points="222 85 218 85 184 5 189 5 222 85"/><polygon class="cls-7" points="213 85 209 85 175 5 180 5 213 85"/><polygon class="cls-4" points="230 85 226 85 192 5 197 5 230 85"/><polygon class="cls-6" points="229 41 229 52 209 5 214 5 229 41"/><polygon class="cls-7" points="229 63 229 73 200 5 205 5 229 63"/><polygon class="cls-4" points="229 20 229 31 218 5 223 5 229 20"/><polygon class="cls-7" points="229 6 229 12 226 5 229 5 229 6"/><path class="cls-7" d="M504,475c-4.22-12.73-3.66-13.65-6-19-4.34-9.94-9.93-15.14-9-16s7.13,4.27,8,5c7.69,6.41,10.28,11.68,12,11,1.45-.58.19-4.54,1-12s3.14-13.13,4-13-.93,7.05,3,11c1.59,1.6,4.31,2.89,6,2,2.51-1.33,2.1-7.19,1-11-1.79-6.21-5.85-8.63-5-10,1-1.56,7.38-.28,13,3,10.12,5.9,13.23,15.67,15,15,2.56-1-4.7-21.15-1-23,2.25-1.13,8.26,4.67,12,11,6.48,11,3.58,19.22,8,21s13-4.4,16-12c3.28-8.23-.94-15.42,2-17,2.33-1.25,7.65,1.81,9,6,1.85,5.75-4.47,11.52-3,13,1.94,2,13.36-7.65,15-6,1,1-1.65,6.49-6,11-13.62,14.14-33.94,8.85-37,18-1.77,5.29,4.11,9.75,1,16-1.52,3-4.26,4.69-7,6-11.17,5.36-38.71,13.11-48,1C507.38,485.19,506.25,481.79,504,475Z" transform="translate(-386 -409)"/><path class="cls-8" d="M514,475c-1.4-.7-1.23-1.43-9-15-1.83-3.2-3.33-5.76-3-6s2.81,2.82,7,7c2.21,2.21,8.87,8.86,10,8s-5-8.12-5-19c0-2.75.41-4.94,1-5,1.42-.15,2,12.31,6,13,2.74.48,6.6-4.78,8-10,2.3-8.55-2.51-15.07-1-16,1.92-1.18,13.44,7.17,14,18C542.79,465.22,521.59,478.78,514,475Z" transform="translate(-386 -409)"/><path class="cls-6" d="M577.39,423.54a11,11,0,0,1,2.7,6.14c1.67,9.34-4.67,21.61-14.27,25.32-8.75,3.38-14-2.71-21.12,2-1.51,1-1.57,1.46-8.59,11.59C528.9,479,527.7,480.29,525.48,481c-5.82,2-14-1.61-14.73-5.74s5.56-8.51,13.72-14.34a55.28,55.28,0,0,0,9.44-8.54c2.77-3.59,1.28-11.6,2.74-14.88,5.63-12.74,15-14.37,16.77-15.19C554.23,422,570.55,416.49,577.39,423.54Z" transform="translate(-386 -409)"/><path class="cls-4" d="M522,472c14-4,13.52-.42,22-6,3.76-2.47,5.84-6,10-13,5.83-9.83,4.34-12,8-16,6.2-6.78,18.8-9.7,29-5,6.44,3,14.63,10.22,14,19-.54,7.6-7.42,12.46-11,15-6,4.23-11.85,5.35-21,7-11.7,2.11-11.08.07-18,2-10.77,3-12.08,7.91-24,11-4.66,1.21-11.7,3-14,0S516.11,473.68,522,472Z" transform="translate(-386 -409)"/><path class="cls-6" d="M564,444c-.73-1.09,3.66-5.55,7-8,.32-.23.63-.45,1-.69.84-.54,4.17-2.67,7-2.31a11.11,11.11,0,0,1,1.79.44c.79.26,1.19.4,1.21.56.07.51-2.6.81-5,2-4.07,2-3.75,4.86-8,7C567.16,443.93,564.48,444.72,564,444Z" transform="translate(-386 -409)"/><path class="cls-6" d="M563,467.76h0c12.36.83,17.78-1.35,20.4-3.73,1-.93,3.29-3.4,4.63-3,.76.24,1.09,1.36.93,2.24-.49,2.75-5.86,4.26-9.27,5.22a42.18,42.18,0,0,1-9.27,1.49" transform="translate(-386 -409)"/><path class="cls-4" d="M541,446c-.38-.05-1-4.45,1-9,.5-1.14,2.77-6.36,7-7,1.85-.28,3.92.34,4,1,0,.36-.5.71-3,2-2.26,1.16-3.63,1.81-4,2C541.45,437.33,541.54,446.07,541,446Z" transform="translate(-386 -409)"/><polygon class="cls-6" points="111 85 5 85 5 5 78 5 111 85"/><polygon class="cls-9" points="111 85 5 85 5 5 78 5 111 85"/><path class="cls-5" d="M414.25,463l-1.11,1.11-1.1,1.11a5.21,5.21,0,0,0-1.11,3.32,6.92,6.92,0,0,0,1.11,3.32,13.74,13.74,0,0,0,2.21,3.32,13,13,0,0,0,5.53,3.32,16.52,16.52,0,0,0,7.75,1.1c1.44-.18,2.75-.6,4.42,0,1.05.37,1.12.74,2.22,1.11a8,8,0,0,0,4.42,0c1.74-.38,3.53-.77,4.43-2.21.53-.87.35-1.45,1.11-2.22s1.31-.7,2.21-1.1c1.39-.64,2.13-1.66,3.32-3.32a16.41,16.41,0,0,0,2.21-4.43,31.58,31.58,0,0,0,1.11-5.53c.29-1.93.31-2.58,0-3.32-.09-.22-.8-1.92-2.21-2.22-1-.21-1.84.41-2.22,0-.21-.23,0-.56,0-1.1a3.53,3.53,0,0,0-1.1-2.22c-1.13-1.33-.73-1.8-2.22-4.42-1.25-2.22-2-3.51-3.32-4.43s-2.62-1.07-5.53-1.1c-6.32-.08-9.48-.12-12.17,1.1a14.41,14.41,0,0,0-6.64,5.54c-.67,1.1-3.22,5.29-2.21,8.85.18.64.77,2.29,0,3.32Z" transform="translate(-386 -409)"/><path class="cls-10" d="M431.4,462.42c.84-.63.42-2.51,0-4.43a17,17,0,0,0-1.11-3.32c-.82-1.94-1.26-2.92-2.21-3.31a4.1,4.1,0,0,0-2.21,0c-1.56.21-2.53.34-3.32,1.1a4.4,4.4,0,0,0-1.11,3.32c.05,1.21.51,1.23,1.11,3.32s.39,2.88,1.1,3.32c.38.23.55.08,2.22,0s3.12,0,3.32,0C430.9,462.5,431.09,462.66,431.4,462.42Z" transform="translate(-386 -409)"/><ellipse class="cls-11" cx="425.87" cy="458.55" rx="2.77" ry="3.32" transform="translate(-436.05 -356.81) rotate(-6.62)"/><path class="cls-10" d="M441.91,458.55a3.84,3.84,0,0,1,2.22-1.11c.63,0,.91.19,1.1,0,.36-.35-.38-1.36-1.1-3.32s-.45-2.15-1.11-3.32a4.32,4.32,0,0,0-2.21-2.21,3.48,3.48,0,0,0-2.22,0,3.79,3.79,0,0,0-2.21,2.21,5.65,5.65,0,0,0,0,3.32,13.21,13.21,0,0,0,1.11,3.32c.89,2,1.46,3.33,2.21,3.32S440.32,459.85,441.91,458.55Z" transform="translate(-386 -409)"/><path class="cls-12" d="M430.85,439.74c.12-2.14-2-3.55-1.11-5.54.42-1,1.05-.9,2.21-2.21.65-.73,2.65-3,2.22-5.53-.53-3.09-4.22-4.36-4.43-4.43a7.85,7.85,0,0,0-4.43,0,11.25,11.25,0,0,0-5.53,3.32c-2.61,2.9-1.85,5.15-4.42,6.64A12.77,12.77,0,0,1,412,433.1c-2.67.67-3.32.33-4.43,1.1s-1.46,1.69-2.21,3.32a9.49,9.49,0,0,0-1.11,3.32,6.18,6.18,0,0,0,1.11,4.43c.89,1.16,2.63,2.45,4.42,2.21,2-.27,2.56-2.3,4.43-2.21a4.18,4.18,0,0,1,2.21,1.11C420.4,448.92,430.58,444.31,430.85,439.74Z" transform="translate(-386 -409)"/><path class="cls-13" d="M424.21,443.06c-1,0-1.94-2.71-2.21-4.43a11.54,11.54,0,0,1,0-3.32c.15-1.66.28-2.9,1.1-3.32a1.1,1.1,0,0,1,1.11,0c.28.23.36.73,0,2.21-.58,2.41-1.11,2.4-1.11,3.32,0,2.06,2.59,2.88,2.21,4.43A1.41,1.41,0,0,1,424.21,443.06Z" transform="translate(-386 -409)"/><path class="cls-13" d="M433.06,442c-.7-.38-.47-2.1,0-5.53.26-1.87.48-2.64,1.11-3.32a3.18,3.18,0,0,1,2.21-1.11c1,0,2.15.48,2.21,1.11,0,.36-.71,1-2.21,2.21-.74.6-.94.74-1.11,1.11s-.12.8,0,2.21c.16,1.82.08,2.06,0,2.21C434.88,441.66,433.68,442.28,433.06,442Z" transform="translate(-386 -409)"/><path class="cls-13" d="M440.81,445.27a8.21,8.21,0,0,0-2.22,0,5.42,5.42,0,0,0-2.56.54,3.6,3.6,0,0,0-.76.57,4.43,4.43,0,0,0-1.1,2.21c-.92,3.1-.85,5.52-1.11,5.53S433,452.5,432,450.8a7.06,7.06,0,0,0-2.21-2.21,8.08,8.08,0,0,0-3.32-1.11,7.29,7.29,0,0,0-3.32,0,8.79,8.79,0,0,0-4.42,3.32c-.45.85-.59,1.91,0,4.43,1.1,4.7,3,6.95,2.21,7.74-.28.29-.57,0-2.21,0-2.79-.07-3.56.57-4.43,0-.24-.15-.75-.57-1.11-3.32a18.46,18.46,0,0,1,0-6.64,16.43,16.43,0,0,1,14.39-13.27,22.73,22.73,0,0,1,5.53,0,15,15,0,0,1,5.53,1.1,14.37,14.37,0,0,1,3.32,2.22,22,22,0,0,1,3.32,3.32,14.06,14.06,0,0,1,2.22,3.32,32.12,32.12,0,0,1,1.1,4.42c.21.95.42,1.95,0,2.21-.18.12-.33,0-1.1,0s-.94.13-1.11,0c-.4-.29.2-1.08,0-2.21s-.83-1.05-1.11-2.21c0-.19-.08-.14-1.1-2.21-.69-1.39-1-2.09-1.11-2.22A4.64,4.64,0,0,0,440.81,445.27Z" transform="translate(-386 -409)"/><ellipse class="cls-11" cx="439.7" cy="455.78" rx="2.21" ry="2.77" transform="translate(-472.79 -305.19) rotate(-12.26)"/><path class="cls-14" d="M434.17,465.19a2.53,2.53,0,0,0,1.1,1.1,2.3,2.3,0,0,0,2.22,0s.35-.23,1.1-2.21" transform="translate(-386 -409)"/><path class="cls-14" d="M423.65,470.17a6.4,6.4,0,0,0,2.22-1.11A6.33,6.33,0,0,0,427,468" transform="translate(-386 -409)"/><path class="cls-14" d="M425.87,469.06a27.27,27.27,0,0,1,3.32,1.11c1.61.8,1.58,1.32,3.32,2.21a12.27,12.27,0,0,0,3.32,1.11,5.64,5.64,0,0,0,3.32,0,4.82,4.82,0,0,0,2.21-2.22c.62-1.09.35-1.42,1.11-3.32a10.31,10.31,0,0,1,1.1-2.21,7.5,7.5,0,0,1,2.22-2.21,15.49,15.49,0,0,1-5.54,4.42,13.71,13.71,0,0,1-3.32,1.11c-1.59.3-2.45.16-5.53,0C429.83,469,425.9,468.78,425.87,469.06Z" transform="translate(-386 -409)"/><path class="cls-14" d="M443.57,462.42a7.57,7.57,0,0,0,3.32,1.11,8.21,8.21,0,0,0,1.11,0" transform="translate(-386 -409)"/><ellipse class="cls-5" cx="425.25" cy="459.5" rx="0.75" ry="1" transform="translate(-520.95 -229.06) rotate(-20.7)"/><ellipse class="cls-5" cx="439.49" cy="456.65" rx="0.58" ry="0.78" transform="translate(-519.02 -224.22) rotate(-20.7)"/></svg>