<svg id="block_building" data-name="block building" xmlns="http://www.w3.org/2000/svg" viewBox="0 0 47 171"><defs><style>.cls-1{fill:#adc5e7;}</style></defs><title>building light</title><rect class="cls-1" width="8" height="8"/><rect class="cls-1" x="13" width="8" height="8"/><rect class="cls-1" x="39" width="8" height="8"/><rect class="cls-1" x="13" y="12" width="8" height="8"/><rect class="cls-1" x="26" y="12" width="8" height="8"/><rect class="cls-1" x="39" y="12" width="8" height="8"/><rect class="cls-1" y="24" width="8" height="8"/><rect class="cls-1" x="13" y="24" width="8" height="8"/><rect class="cls-1" x="39" y="24" width="8" height="8"/><rect class="cls-1" x="13" y="36" width="8" height="8"/><rect class="cls-1" x="26" y="36" width="8" height="8"/><rect class="cls-1" x="39" y="36" width="8" height="8"/><rect class="cls-1" y="48" width="8" height="8"/><rect class="cls-1" x="13" y="48" width="8" height="8"/><rect class="cls-1" x="39" y="48" width="8" height="8"/><rect class="cls-1" x="13" y="60" width="8" height="8"/><rect class="cls-1" x="26" y="60" width="8" height="8"/><rect class="cls-1" x="39" y="60" width="8" height="8"/><rect class="cls-1" y="72" width="8" height="8"/><rect class="cls-1" x="26" y="72" width="8" height="8"/><rect class="cls-1" x="39" y="72" width="8" height="8"/><rect class="cls-1" y="84" width="8" height="8"/><rect class="cls-1" x="13" y="84" width="8" height="8"/><rect class="cls-1" x="39" y="84" width="8" height="8"/><rect class="cls-1" y="96" width="8" height="8"/><rect class="cls-1" x="26" y="96" width="8" height="8"/><rect class="cls-1" x="39" y="96" width="8" height="8"/><rect class="cls-1" y="108" width="8" height="8"/><rect class="cls-1" x="13" y="108" width="8" height="8"/><rect class="cls-1" x="26" y="119" width="8" height="8"/><rect class="cls-1" x="13" y="119" width="8" height="8"/><rect class="cls-1" x="13" y="130" width="8" height="8"/><rect class="cls-1" x="27" y="141" width="8" height="8"/><rect class="cls-1" x="13" y="151" width="8" height="8"/><rect class="cls-1" x="27" y="151" width="8" height="8"/><rect class="cls-1" y="130" width="8" height="8"/><rect class="cls-1" x="27" y="163" width="8" height="8"/><rect class="cls-1" y="160" width="8" height="8"/><rect class="cls-1" x="26" y="108" width="8" height="8"/><rect class="cls-1" x="39" y="119" width="8" height="8"/><rect class="cls-1" x="39" y="130" width="8" height="8"/><rect class="cls-1" x="39" y="141" width="8" height="8"/><rect class="cls-1" x="39" y="163" width="8" height="8"/></svg>