<svg id="building_8" data-name="building 8" xmlns="http://www.w3.org/2000/svg" viewBox="0 0 190 258"><defs><style>.cls-1{fill:#f37154;}.cls-2{fill:#fcd3d3;}.cls-3,.cls-4{fill:#fff;}.cls-4{stroke:#f2f2f2;stroke-miterlimit:10;}</style></defs><title>building-8</title><path class="cls-1" d="M935,323c1.34-13.87,12.73-25.54,26-26,14.3-.5,27.06,11,28,26" transform="translate(-935 -274)"/><polyline class="cls-1" points="62 115 62 104 76 104 76 98 91 98 91 93 102 93 102 98 117 98 117 104 132 104 132 115"/><rect class="cls-2" x="8" y="49" width="38" height="40"/><rect class="cls-2" x="8" y="91" width="38" height="58"/><rect class="cls-2" x="8" y="157" width="38" height="83"/><rect class="cls-2" x="48" y="157" width="95" height="82"/><rect class="cls-2" x="145" y="158" width="38" height="81"/><polygon class="cls-1" points="183 158 8 157 0 149 190 149 183 158"/><polygon class="cls-1" points="136 120 57 120 51 115 142 115 136 120"/><rect class="cls-2" x="57" y="120" width="79" height="29"/><rect class="cls-2" x="8" y="241" width="175" height="17"/><rect class="cls-3" x="19" y="7" width="16" height="2"/><rect class="cls-3" x="26" width="2" height="23"/><rect class="cls-3" x="95" y="75" width="2" height="18"/><rect class="cls-3" x="89" y="81" width="14" height="2"/><rect class="cls-2" x="62" y="113" width="70" height="2"/><rect class="cls-2" x="76" y="102" width="41" height="2"/><rect class="cls-3" x="81" y="203" width="30" height="36"/><ellipse class="cls-3" cx="96" cy="205.5" rx="15" ry="14.5"/><rect class="cls-3" x="57" y="146" width="79" height="1.5"/><rect class="cls-3" x="48" y="161" width="95" height="2"/><rect class="cls-3" x="48" y="165" width="95" height="2"/><rect class="cls-3" x="48" y="169" width="95" height="2"/><rect class="cls-3" x="57" y="143" width="79" height="1.5"/><rect class="cls-3" x="57" y="122" width="79" height="1.5"/><rect class="cls-3" x="141" y="171" width="1" height="68"/><rect class="cls-3" x="133" y="171" width="1" height="68"/><rect class="cls-3" x="125" y="171" width="1" height="68"/><rect class="cls-3" x="117" y="171" width="1" height="68"/><rect class="cls-3" x="110" y="171" width="1" height="68"/><rect class="cls-3" x="58" y="120" width="1" height="29"/><rect class="cls-3" x="62" y="120" width="1" height="29"/><rect class="cls-3" x="66" y="120" width="1" height="29"/><rect class="cls-3" x="70" y="120" width="1" height="29"/><rect class="cls-3" x="74" y="120" width="1" height="29"/><rect class="cls-3" x="78" y="120" width="1" height="29"/><rect class="cls-3" x="82" y="120" width="1" height="29"/><rect class="cls-3" x="86" y="120" width="1" height="29"/><rect class="cls-3" x="90" y="120" width="1" height="29"/><rect class="cls-3" x="94" y="120" width="1" height="29"/><rect class="cls-3" x="98" y="120" width="1" height="29"/><rect class="cls-3" x="102" y="120" width="1" height="29"/><rect class="cls-3" x="106" y="120" width="1" height="29"/><rect class="cls-3" x="110" y="120" width="1" height="29"/><rect class="cls-3" x="114" y="120" width="1" height="29"/><rect class="cls-3" x="118" y="120" width="1" height="29"/><rect class="cls-3" x="122" y="120" width="1" height="29"/><rect class="cls-3" x="126" y="120" width="1" height="29"/><rect class="cls-3" x="134" y="120" width="1" height="29"/><rect class="cls-3" x="130" y="120" width="1" height="29"/><rect class="cls-3" x="73" y="171" width="1" height="68"/><rect class="cls-3" x="81" y="171" width="1" height="68"/><rect class="cls-3" x="65" y="171" width="1" height="68"/><rect class="cls-3" x="57" y="171" width="1" height="68"/><rect class="cls-3" x="49" y="171" width="1" height="68"/><line class="cls-4" x1="11.5" y1="89" x2="11.5" y2="49"/><line class="cls-4" x1="15.5" y1="89" x2="15.5" y2="49"/><line class="cls-4" x1="19.5" y1="89" x2="19.5" y2="49"/><line class="cls-4" x1="23.5" y1="89" x2="23.5" y2="49"/><line class="cls-4" x1="27.5" y1="89" x2="27.5" y2="49"/><line class="cls-4" x1="31.5" y1="89" x2="31.5" y2="49"/><line class="cls-4" x1="35.5" y1="89" x2="35.5" y2="49"/><line class="cls-4" x1="39.5" y1="89" x2="39.5" y2="49"/><line class="cls-4" x1="43.5" y1="89" x2="43.5" y2="49"/><line class="cls-4" x1="11.5" y1="239" x2="11.5" y2="157"/><line class="cls-4" x1="15.5" y1="239" x2="15.5" y2="157"/><line class="cls-4" x1="19.5" y1="239" x2="19.5" y2="157"/><line class="cls-4" x1="23.5" y1="239" x2="23.5" y2="157"/><line class="cls-4" x1="27.5" y1="239" x2="27.5" y2="157"/><line class="cls-4" x1="31.5" y1="239" x2="31.5" y2="157"/><line class="cls-4" x1="35.5" y1="239" x2="35.5" y2="157"/><line class="cls-4" x1="39.5" y1="239" x2="39.5" y2="157"/><line class="cls-4" x1="43.5" y1="239" x2="43.5" y2="157"/><line class="cls-4" x1="147.5" y1="239" x2="147.5" y2="158"/><line class="cls-4" x1="151.5" y1="239" x2="151.5" y2="158"/><line class="cls-4" x1="155.5" y1="239" x2="155.5" y2="158"/><line class="cls-4" x1="159.5" y1="239" x2="159.5" y2="158"/><line class="cls-4" x1="163.5" y1="239" x2="163.5" y2="158"/><line class="cls-4" x1="167.5" y1="239" x2="167.5" y2="158"/><line class="cls-4" x1="171.5" y1="239" x2="171.5" y2="158"/><line class="cls-4" x1="175.5" y1="239" x2="175.5" y2="158"/><line class="cls-4" x1="179.5" y1="239" x2="179.5" y2="158"/><line class="cls-4" x1="11.5" y1="258" x2="11.5" y2="241"/><line class="cls-4" x1="15.5" y1="258" x2="15.5" y2="241"/><line class="cls-4" x1="19.5" y1="258" x2="19.5" y2="241"/><line class="cls-4" x1="23.5" y1="258" x2="23.5" y2="241"/><line class="cls-4" x1="27.5" y1="258" x2="27.5" y2="241"/><line class="cls-4" x1="31.5" y1="258" x2="31.5" y2="241"/><line class="cls-4" x1="35.5" y1="258" x2="35.5" y2="241"/><line class="cls-4" x1="39.5" y1="258" x2="39.5" y2="241"/><line class="cls-4" x1="43.5" y1="258" x2="43.5" y2="241"/><line class="cls-4" x1="147.5" y1="258" x2="147.5" y2="241"/><line class="cls-4" x1="151.5" y1="258" x2="151.5" y2="241"/><line class="cls-4" x1="155.5" y1="258" x2="155.5" y2="241"/><line class="cls-4" x1="159.5" y1="258" x2="159.5" y2="241"/><line class="cls-4" x1="163.5" y1="258" x2="163.5" y2="241"/><line class="cls-4" x1="167.5" y1="258" x2="167.5" y2="241"/><line class="cls-4" x1="171.5" y1="258" x2="171.5" y2="241"/><line class="cls-4" x1="175.5" y1="258" x2="175.5" y2="241"/><line class="cls-4" x1="179.5" y1="258" x2="179.5" y2="241"/><line class="cls-4" x1="111.5" y1="258" x2="111.5" y2="241"/><line class="cls-4" x1="115.5" y1="258" x2="115.5" y2="241"/><line class="cls-4" x1="119.5" y1="258" x2="119.5" y2="241"/><line class="cls-4" x1="123.5" y1="258" x2="123.5" y2="241"/><line class="cls-4" x1="127.5" y1="258" x2="127.5" y2="241"/><line class="cls-4" x1="131.5" y1="258" x2="131.5" y2="241"/><line class="cls-4" x1="135.5" y1="258" x2="135.5" y2="241"/><line class="cls-4" x1="139.5" y1="258" x2="139.5" y2="241"/><line class="cls-4" x1="143.5" y1="258" x2="143.5" y2="241"/><line class="cls-4" x1="75.5" y1="258" x2="75.5" y2="241"/><line class="cls-4" x1="79.5" y1="258" x2="79.5" y2="241"/><line class="cls-4" x1="83.5" y1="258" x2="83.5" y2="241"/><line class="cls-4" x1="87.5" y1="258" x2="87.5" y2="241"/><line class="cls-4" x1="91.5" y1="258" x2="91.5" y2="241"/><line class="cls-4" x1="95.5" y1="258" x2="95.5" y2="241"/><line class="cls-4" x1="99.5" y1="258" x2="99.5" y2="241"/><line class="cls-4" x1="103.5" y1="258" x2="103.5" y2="241"/><line class="cls-4" x1="107.5" y1="258" x2="107.5" y2="241"/><line class="cls-4" x1="39.5" y1="258" x2="39.5" y2="241"/><line class="cls-4" x1="43.5" y1="258" x2="43.5" y2="241"/><line class="cls-4" x1="47.5" y1="258" x2="47.5" y2="241"/><line class="cls-4" x1="51.5" y1="258" x2="51.5" y2="241"/><line class="cls-4" x1="55.5" y1="258" x2="55.5" y2="241"/><line class="cls-4" x1="59.5" y1="258" x2="59.5" y2="241"/><line class="cls-4" x1="63.5" y1="258" x2="63.5" y2="241"/><line class="cls-4" x1="67.5" y1="258" x2="67.5" y2="241"/><line class="cls-4" x1="71.5" y1="258" x2="71.5" y2="241"/><line class="cls-4" x1="11.5" y1="149" x2="11.5" y2="91"/><line class="cls-4" x1="15.5" y1="149" x2="15.5" y2="91"/><line class="cls-4" x1="19.5" y1="149" x2="19.5" y2="91"/><line class="cls-4" x1="23.5" y1="149" x2="23.5" y2="91"/><line class="cls-4" x1="27.5" y1="149" x2="27.5" y2="91"/><line class="cls-4" x1="31.5" y1="149" x2="31.5" y2="91"/><line class="cls-4" x1="35.5" y1="149" x2="35.5" y2="91"/><line class="cls-4" x1="39.5" y1="149" x2="39.5" y2="91"/><line class="cls-4" x1="43.5" y1="149" x2="43.5" y2="91"/></svg>