<svg id="building_4" data-name="building 4" xmlns="http://www.w3.org/2000/svg" viewBox="0 0 140 475"><defs><style>.cls-1{fill:#fcd3d3;}.cls-2{fill:#fff;}</style></defs><title>building-4</title><polygon class="cls-1" points="45 475 0 475 0 111 47 83 45 475"/><polygon class="cls-1" points="140 475 52 475 52 0 140 92.19 140 475"/><polygon class="cls-2" points="52 17 140 107 140 123 52 34.43 52 17"/><polygon class="cls-2" points="52 49 140 139 140 155 52 66.43 52 49"/><polygon class="cls-2" points="52 82 140 172 140 188 52 99.43 52 82"/><polygon class="cls-2" points="52 114 140 204 140 220 52 131.43 52 114"/><polygon class="cls-2" points="52 147 140 237 140 253 52 164.43 52 147"/><polygon class="cls-2" points="52 180 140 270 140 286 52 197.43 52 180"/><polygon class="cls-2" points="52 213 140 303 140 319 52 230.43 52 213"/><polygon class="cls-2" points="52 247 140 337 140 353 52 264.43 52 247"/><polygon class="cls-2" points="52 283 140 373 140 389 52 300.43 52 283"/><polygon class="cls-2" points="52 317 140 407 140 423 52 334.43 52 317"/><polygon class="cls-2" points="52 350 140 440 140 456 52 367.43 52 350"/><polygon class="cls-2" points="52 383 140 475 126 475 52 400.43 52 383"/><polygon class="cls-2" points="52 417 109 475 92 475 52 434.43 52 417"/><polygon class="cls-2" points="52 454 73 475 56 475 52 471.43 52 454"/></svg>