<svg id="building_1" data-name="building 1" xmlns="http://www.w3.org/2000/svg" viewBox="0 0 177 250"><defs><style>.cls-1{fill:#fcd3d3;}.cls-2{fill:#fff;stroke:#fff;stroke-miterlimit:10;}.cls-3{fill:#adc5e7;}.cls-4{fill:#406ab3;}</style></defs><title>building-1</title><rect class="cls-1" x="1" width="176" height="185"/><rect class="cls-2" x="8.5" y="9.5" width="48.05" height="48.05"/><rect class="cls-3" x="8.5" y="68.61" width="48.05" height="48.05"/><rect class="cls-4" x="8.5" y="127.95" width="48.05" height="48.05"/><rect class="cls-4" x="64.5" y="9.5" width="48.05" height="48.05"/><rect class="cls-2" x="64.5" y="68.61" width="48.05" height="48.05"/><rect class="cls-3" x="64.5" y="127.95" width="48.05" height="48.05"/><rect class="cls-2" x="120.5" y="9.5" width="48.05" height="48.05"/><rect class="cls-3" x="120.5" y="68.61" width="48.05" height="48.05"/><rect class="cls-4" x="120.5" y="127.95" width="48.05" height="48.05"/><rect class="cls-4" y="185" width="17" height="65"/><rect class="cls-4" x="29" y="185" width="17" height="65"/><rect class="cls-4" x="59" y="185" width="17" height="65"/><rect class="cls-4" x="91" y="185" width="17" height="65"/><rect class="cls-4" x="160" y="185" width="17" height="65"/><rect class="cls-4" x="126" y="185" width="17" height="65"/></svg>