<svg id="building_5" data-name="building 5" xmlns="http://www.w3.org/2000/svg" viewBox="0 0 97 504"><defs><style>.cls-1{fill:#fcd3d3;}.cls-2{fill:#fff;}.cls-3{fill:#adc5e7;}</style></defs><title>building-5</title><rect class="cls-1" y="82" width="97" height="422"/><rect class="cls-2" x="19" y="39" width="24" height="43"/><rect class="cls-3" x="43" y="68" width="37" height="14"/><rect class="cls-3" x="43" width="2" height="68"/><rect class="cls-3" x="36" y="19" width="16" height="2"/><rect class="cls-3" x="36" y="27" width="16" height="2"/><rect class="cls-2" y="90" width="82" height="4"/><rect class="cls-2" x="15" y="99" width="82" height="4"/><rect class="cls-2" y="108" width="65" height="4"/><rect class="cls-2" y="118" width="82" height="4"/><rect class="cls-2" x="15" y="127" width="82" height="4"/><rect class="cls-2" y="136" width="65" height="4"/><rect class="cls-2" y="145" width="82" height="4"/><rect class="cls-2" x="15" y="154" width="82" height="4"/><rect class="cls-2" y="163" width="65" height="4"/><rect class="cls-2" y="172" width="81" height="4"/><rect class="cls-2" x="14" y="181" width="82" height="4"/><rect class="cls-2" y="190" width="64" height="4"/><rect class="cls-2" y="199" width="82" height="4"/><rect class="cls-2" x="15" y="208" width="82" height="4"/><rect class="cls-2" y="217" width="58" height="4"/><rect class="cls-2" y="227" width="82" height="4"/><rect class="cls-2" x="15" y="236" width="82" height="4"/><rect class="cls-2" y="245" width="65" height="4"/><rect class="cls-2" y="254" width="82" height="4"/><rect class="cls-2" x="15" y="263" width="82" height="4"/><rect class="cls-2" y="272" width="65" height="4"/><rect class="cls-2" y="282" width="82" height="4"/><rect class="cls-2" x="15" y="291" width="82" height="4"/><rect class="cls-2" y="300" width="65" height="4"/><rect class="cls-2" y="311" width="82" height="4"/><rect class="cls-2" x="15" y="320" width="82" height="4"/><rect class="cls-2" y="329" width="65" height="4"/><rect class="cls-2" y="340" width="82" height="4"/><rect class="cls-2" x="15" y="349" width="82" height="4"/><rect class="cls-2" y="358" width="65" height="4"/><rect class="cls-2" y="368" width="82" height="4"/><rect class="cls-2" x="15" y="377" width="82" height="4"/><rect class="cls-2" y="386" width="65" height="4"/><rect class="cls-2" y="397" width="81" height="4"/><rect class="cls-2" x="14" y="406" width="82" height="4"/><rect class="cls-2" y="415" width="64.21" height="4"/><rect class="cls-2" y="426" width="81" height="4"/><rect class="cls-2" x="14" y="435" width="82" height="4"/><rect class="cls-2" y="444" width="64.21" height="4"/><rect class="cls-2" y="454" width="81" height="4"/><rect class="cls-2" x="14" y="463" width="82" height="4"/><rect class="cls-2" y="472" width="64" height="4"/><rect class="cls-2" y="481" width="82" height="4"/><rect class="cls-2" x="15" y="490" width="82" height="4"/></svg>