<svg id="building_7" data-name="building 7" xmlns="http://www.w3.org/2000/svg" viewBox="0 0 209 390"><defs><style>.cls-1{fill:#adc5e7;}.cls-2{fill:#406ab3;}.cls-3{fill:#fff;}</style></defs><title>building-7</title><rect class="cls-1" y="18" width="62" height="83"/><rect class="cls-1" x="73" y="18" width="136" height="372"/><rect class="cls-2" x="84.5" y="5.5" width="122" height="12"/><rect class="cls-2" y="6" width="58" height="12"/><rect class="cls-3" x="15" width="47" height="6"/><rect class="cls-3" x="77" width="73" height="6"/><path class="cls-1" d="M798,541" transform="translate(-711 -147)"/><rect class="cls-3" x="1" y="29" width="14" height="3"/><rect class="cls-3" x="1" y="45" width="14" height="3"/><rect class="cls-3" x="1" y="59" width="14" height="3"/><rect class="cls-3" x="1" y="67" width="14" height="3"/><rect class="cls-3" x="1" y="89" width="14" height="3"/><rect class="cls-3" x="17" y="22" width="14" height="3"/><rect class="cls-3" x="17" y="67" width="14" height="3"/><rect class="cls-3" x="17" y="81" width="14" height="3"/><rect class="cls-3" x="17" y="89" width="14" height="3"/><rect class="cls-3" x="33" y="28" width="14" height="3"/><rect class="cls-3" x="33" y="45" width="14" height="3"/><rect class="cls-3" x="16" y="52" width="14" height="3"/><rect class="cls-3" x="17" y="95" width="14" height="3"/><rect class="cls-3" x="33" y="59" width="14" height="3"/><rect class="cls-3" x="33" y="81" width="14" height="3"/><rect class="cls-3" x="49" y="22" width="11" height="3"/><rect class="cls-3" x="49" y="36" width="11" height="3"/><rect class="cls-3" x="49" y="45" width="11" height="3"/><rect class="cls-3" x="49" y="59" width="11" height="3"/><rect class="cls-3" x="49" y="67" width="11" height="3"/><rect class="cls-3" x="49" y="81" width="11" height="3"/><rect class="cls-3" x="49" y="89" width="11" height="3"/><rect class="cls-3" x="104" y="180" width="14" height="3"/><rect class="cls-3" x="104" y="188" width="14" height="3"/><rect class="cls-3" x="104" y="196" width="14" height="3"/><rect class="cls-3" x="104" y="212" width="14" height="3"/><rect class="cls-3" x="104" y="220" width="14" height="3"/><rect class="cls-3" x="104" y="228" width="14" height="3"/><rect class="cls-3" x="104" y="240" width="14" height="3"/><rect class="cls-3" x="104" y="248" width="14" height="3"/><rect class="cls-3" x="104" y="256" width="14" height="3"/><rect class="cls-3" x="104" y="279" width="14" height="3"/><rect class="cls-3" x="104" y="287" width="14" height="3"/><rect class="cls-3" x="104" y="295" width="14" height="3"/><rect class="cls-3" x="105" y="313" width="14" height="3"/><rect class="cls-3" x="105" y="321" width="14" height="3"/><rect class="cls-3" x="105" y="329" width="14" height="3"/><rect class="cls-3" x="105" y="338" width="14" height="3"/><rect class="cls-3" x="105" y="346" width="14" height="3"/><rect class="cls-3" x="105" y="354" width="14" height="3"/><rect class="cls-3" x="104" y="163" width="14" height="3"/><rect class="cls-3" x="104" y="171" width="14" height="3"/><rect class="cls-3" x="122" y="368" width="14" height="3"/><rect class="cls-3" x="150" y="368" width="14" height="3"/><rect class="cls-3" x="168" y="368" width="14" height="3"/><rect class="cls-3" x="184" y="96" width="14" height="3"/><rect class="cls-3" x="191" y="368" width="14" height="3"/><rect class="cls-3" x="191" y="375" width="14" height="3"/><rect class="cls-3" x="100" y="375" width="14" height="3"/><rect class="cls-3" x="78" y="22" width="14" height="3"/><rect class="cls-3" x="88" y="29" width="14" height="3"/><rect class="cls-3" x="78" y="36" width="14" height="3"/><rect class="cls-3" x="78" y="45" width="14" height="3"/><rect class="cls-3" x="88" y="52" width="14" height="3"/><rect class="cls-3" x="78" y="59" width="14" height="3"/><rect class="cls-3" x="78" y="67" width="14" height="3"/><rect class="cls-3" x="88" y="74" width="14" height="3"/><rect class="cls-3" x="78" y="81" width="14" height="3"/><rect class="cls-3" x="78" y="89" width="14" height="3"/><rect class="cls-3" x="122" y="22" width="14" height="3"/><rect class="cls-3" x="122" y="34" width="14" height="3"/><rect class="cls-3" x="122" y="43" width="14" height="3"/><rect class="cls-3" x="122" y="58" width="14" height="3"/><rect class="cls-3" x="122" y="66" width="14" height="3"/><rect class="cls-3" x="122" y="80" width="14" height="3"/><rect class="cls-3" x="122" y="88" width="14" height="3"/><rect class="cls-3" x="123" y="110" width="14" height="3"/><rect class="cls-3" x="123" y="118" width="14" height="3"/><rect class="cls-3" x="122" y="149" width="14" height="3"/><rect class="cls-3" x="122" y="157" width="14" height="3"/><rect class="cls-3" x="123" y="188" width="14" height="3"/><rect class="cls-3" x="123" y="196" width="14" height="3"/><rect class="cls-3" x="123" y="203" width="14" height="3"/><rect class="cls-3" x="123" y="211" width="14" height="3"/><rect class="cls-3" x="123" y="232" width="14" height="3"/><rect class="cls-3" x="123" y="240" width="14" height="3"/><rect class="cls-3" x="123" y="252" width="14" height="3"/><rect class="cls-3" x="123" y="260" width="14" height="3"/><rect class="cls-3" x="123" y="271" width="14" height="3"/><rect class="cls-3" x="123" y="279" width="14" height="3"/><rect class="cls-3" x="123" y="298" width="14" height="3"/><rect class="cls-3" x="123" y="306" width="14" height="3"/><rect class="cls-3" x="123" y="313" width="14" height="3"/><rect class="cls-3" x="123" y="321" width="14" height="3"/><rect class="cls-3" x="123" y="338" width="14" height="3"/><rect class="cls-3" x="123" y="346" width="14" height="3"/><rect class="cls-3" x="123" y="354" width="14" height="3"/><rect class="cls-3" x="105" y="29" width="14" height="3"/><rect class="cls-3" x="105" y="43" width="14" height="3"/><rect class="cls-3" x="105" y="52" width="14" height="3"/><rect class="cls-3" x="105" y="66" width="14" height="3"/><rect class="cls-3" x="105" y="74" width="14" height="3"/><rect class="cls-3" x="105" y="88" width="14" height="3"/><rect class="cls-3" x="105" y="96" width="14" height="3"/><rect class="cls-3" x="105" y="104" width="14" height="3"/><rect class="cls-3" x="105" y="118" width="14" height="3"/><rect class="cls-3" x="105" y="127" width="14" height="3"/><rect class="cls-3" x="105" y="141" width="14" height="3"/><rect class="cls-3" x="105" y="149" width="14" height="3"/><rect class="cls-3" x="150" y="29" width="14" height="3"/><rect class="cls-3" x="150" y="43" width="14" height="3"/><rect class="cls-3" x="150" y="52" width="14" height="3"/><rect class="cls-3" x="150" y="66" width="14" height="3"/><rect class="cls-3" x="150" y="74" width="14" height="3"/><rect class="cls-3" x="150" y="88" width="14" height="3"/><rect class="cls-3" x="150" y="96" width="14" height="3"/><rect class="cls-3" x="150" y="104" width="14" height="3"/><rect class="cls-3" x="150" y="180" width="14" height="3"/><rect class="cls-3" x="150" y="196" width="14" height="3"/><rect class="cls-3" x="150" y="212" width="14" height="3"/><rect class="cls-3" x="150" y="228" width="14" height="3"/><rect class="cls-3" x="150" y="240" width="14" height="3"/><rect class="cls-3" x="150" y="248" width="14" height="3"/><rect class="cls-3" x="150" y="256" width="14" height="3"/><rect class="cls-3" x="150" y="279" width="14" height="3"/><rect class="cls-3" x="150" y="287" width="14" height="3"/><rect class="cls-3" x="150" y="295" width="14" height="3"/><rect class="cls-3" x="151" y="313" width="14" height="3"/><rect class="cls-3" x="151" y="321" width="14" height="3"/><rect class="cls-3" x="151" y="329" width="14" height="3"/><rect class="cls-3" x="151" y="338" width="14" height="3"/><rect class="cls-3" x="151" y="346" width="14" height="3"/><rect class="cls-3" x="151" y="354" width="14" height="3"/><rect class="cls-3" x="123" y="361" width="14" height="3"/><rect class="cls-3" x="151" y="361" width="14" height="3"/><rect class="cls-3" x="150" y="118" width="14" height="3"/><rect class="cls-3" x="150" y="127" width="14" height="3"/><rect class="cls-3" x="150" y="141" width="14" height="3"/><rect class="cls-3" x="150" y="149" width="14" height="3"/><rect class="cls-3" x="150" y="163" width="14" height="3"/><rect class="cls-3" x="168" y="22" width="14" height="3"/><rect class="cls-3" x="168" y="35" width="14" height="3"/><rect class="cls-3" x="168" y="44" width="14" height="3"/><rect class="cls-3" x="168" y="58" width="14" height="3"/><rect class="cls-3" x="168" y="66" width="14" height="3"/><rect class="cls-3" x="168" y="80" width="14" height="3"/><rect class="cls-3" x="168" y="88" width="14" height="3"/><rect class="cls-3" x="168" y="96" width="14" height="3"/><rect class="cls-3" x="168" y="180" width="14" height="3"/><rect class="cls-3" x="168" y="188" width="14" height="3"/><rect class="cls-3" x="168" y="204" width="14" height="3"/><rect class="cls-3" x="168" y="212" width="14" height="3"/><rect class="cls-3" x="168" y="232" width="14" height="3"/><rect class="cls-3" x="168" y="240" width="14" height="3"/><rect class="cls-3" x="168" y="248" width="14" height="3"/><rect class="cls-3" x="168" y="271" width="14" height="3"/><rect class="cls-3" x="168" y="279" width="14" height="3"/><rect class="cls-3" x="168" y="287" width="14" height="3"/><rect class="cls-3" x="169" y="305" width="14" height="3"/><rect class="cls-3" x="169" y="313" width="14" height="3"/><rect class="cls-3" x="169" y="321" width="14" height="3"/><rect class="cls-3" x="169" y="338" width="14" height="3"/><rect class="cls-3" x="169" y="346" width="14" height="3"/><rect class="cls-3" x="168" y="110" width="14" height="3"/><rect class="cls-3" x="168" y="119" width="14" height="3"/><rect class="cls-3" x="168" y="133" width="14" height="3"/><rect class="cls-3" x="168" y="141" width="14" height="3"/><rect class="cls-3" x="168" y="155" width="14" height="3"/><rect class="cls-3" x="168" y="163" width="14" height="3"/><rect class="cls-3" x="185" y="22" width="14" height="3"/><rect class="cls-3" x="185" y="44" width="14" height="3"/><rect class="cls-3" x="185" y="52" width="14" height="3"/><rect class="cls-3" x="193" y="29" width="14" height="3"/><rect class="cls-3" x="193" y="58" width="14" height="3"/><rect class="cls-3" x="185" y="66" width="14" height="3"/><rect class="cls-3" x="185" y="74" width="14" height="3"/><rect class="cls-3" x="185" y="82" width="14" height="3"/><rect class="cls-3" x="185" y="105" width="14" height="3"/><rect class="cls-3" x="185" y="119" width="14" height="3"/><rect class="cls-3" x="185" y="127" width="14" height="3"/><rect class="cls-3" x="185" y="141" width="14" height="3"/><rect class="cls-3" x="185" y="149" width="14" height="3"/><rect class="cls-3" x="185" y="163" width="14" height="3"/><rect class="cls-3" x="185" y="176" width="14" height="3"/><rect class="cls-3" x="185" y="185" width="14" height="3"/><rect class="cls-3" x="185" y="199" width="14" height="3"/><rect class="cls-3" x="185" y="221" width="14" height="3"/><rect class="cls-3" x="185" y="229" width="14" height="3"/><rect class="cls-3" x="185" y="237" width="14" height="3"/><rect class="cls-3" x="192" y="248" width="14" height="3"/><rect class="cls-3" x="192" y="212" width="14" height="3"/><rect class="cls-3" x="191" y="169" width="14" height="3"/><rect class="cls-3" x="191" y="155" width="14" height="3"/><rect class="cls-3" x="185" y="260" width="14" height="3"/><rect class="cls-3" x="185" y="275" width="14" height="3"/><rect class="cls-3" x="185" y="294" width="14" height="3"/><rect class="cls-3" x="185" y="354" width="14" height="3"/><rect class="cls-3" x="192" y="346" width="14" height="3"/><rect class="cls-3" x="192" y="382" width="14" height="3"/><rect class="cls-3" x="169" y="382" width="14" height="3"/><rect class="cls-3" x="123" y="382" width="14" height="3"/><rect class="cls-3" x="101" y="382" width="14" height="3"/><rect class="cls-3" x="192" y="321" width="14" height="3"/><rect class="cls-3" x="192" y="287" width="14" height="3"/><rect class="cls-3" x="183" y="305" width="16" height="3"/><rect class="cls-3" x="176" y="329" width="23" height="3"/><rect class="cls-3" x="88" y="96" width="14" height="3"/><rect class="cls-3" x="93" y="109" width="9" height="3"/><rect class="cls-3" x="93" y="133" width="9" height="3"/><rect class="cls-3" x="93" y="157" width="9" height="3"/><rect class="cls-3" x="133" y="29" width="14" height="3"/><rect class="cls-3" x="133" y="52" width="14" height="3"/><rect class="cls-3" x="133" y="74" width="14" height="3"/><rect class="cls-3" x="133" y="96" width="14" height="3"/><rect class="cls-3" x="133" y="127" width="14" height="3"/><rect class="cls-3" x="133" y="135" width="14" height="3"/><rect class="cls-3" x="133" y="172" width="14" height="3"/><rect class="cls-3" x="133" y="179" width="14" height="3"/><rect class="cls-3" x="133" y="221" width="14" height="3"/><rect class="cls-3" x="133" y="232" width="14" height="3"/><rect class="cls-3" x="133" y="287" width="14" height="3"/><rect class="cls-3" x="133" y="329" width="14" height="3"/></svg>