<svg id="building_3" data-name="building 3" xmlns="http://www.w3.org/2000/svg" viewBox="0 0 152 398"><defs><style>.cls-1{fill:#adc5e7;}.cls-2{fill:#406ab3;}</style></defs><title>building-3</title><rect class="cls-1" width="54" height="398"/><rect class="cls-1" x="54" y="116" width="98" height="282"/><rect class="cls-2" x="7" width="8" height="398"/><rect class="cls-2" x="46" width="8" height="398"/><rect class="cls-2" x="26" width="8" height="398"/><rect class="cls-2" x="54" y="130" width="98" height="8"/><rect class="cls-2" x="54" y="150" width="98" height="8"/><rect class="cls-2" x="54" y="170" width="98" height="8"/><rect class="cls-2" x="54" y="190" width="98" height="8"/><rect class="cls-2" x="54" y="211" width="98" height="8"/><rect class="cls-2" x="54" y="230" width="98" height="8"/><rect class="cls-2" x="54" y="249" width="98" height="8"/><rect class="cls-2" x="54" y="270" width="98" height="8"/><rect class="cls-2" x="54" y="291" width="98" height="8"/><rect class="cls-2" x="54" y="310" width="98" height="8"/><rect class="cls-2" x="54" y="331" width="98" height="8"/><rect class="cls-2" x="54" y="352" width="98" height="8"/><rect class="cls-2" x="54" y="374" width="98" height="8"/></svg>