<svg id="crane" xmlns="http://www.w3.org/2000/svg" viewBox="0 0 83.7 152.67"><defs><style>.cls-1{fill:#fff;}</style></defs><title>crane</title><rect class="cls-1" x="53.7" y="86.67" width="30" height="12"/><rect class="cls-1" x="63.7" y="98.67" width="2" height="54"/><rect class="cls-1" x="72.7" y="98.67" width="2" height="54"/><rect class="cls-1" x="1171.07" y="138.67" width="1.63" height="95.44" transform="translate(-1082.82 382.23) rotate(-25.6)"/><rect class="cls-1" x="1164.17" y="152.33" width="1.43" height="81.13" transform="translate(-1086.32 379.84) rotate(-25.6)"/><rect class="cls-1" x="1179.69" y="287.11" width="14.17" height="1.68" transform="translate(-897.63 891.3) rotate(-51.27)"/><rect class="cls-1" x="1179.69" y="271.11" width="14.17" height="1.68" transform="translate(-885.15 885.31) rotate(-51.27)"/><rect class="cls-1" x="1179.69" y="255.11" width="14.17" height="1.68" transform="translate(-872.67 879.32) rotate(-51.27)"/><rect class="cls-1" x="1179.69" y="246.11" width="14.17" height="1.68" transform="translate(617.17 1186.03) rotate(-128.62)"/><rect class="cls-1" x="1179.69" y="264.11" width="14.17" height="1.68" transform="translate(603.11 1215.26) rotate(-128.62)"/><rect class="cls-1" x="1179.69" y="281.11" width="14.17" height="1.68" transform="translate(589.82 1242.87) rotate(-128.62)"/><rect class="cls-1" x="1174.98" y="215.32" width="12.39" height="1.68" transform="translate(-629.62 1054.11) rotate(-65.09)"/><rect class="cls-1" x="1178.65" y="224.3" width="13.53" height="1.8" transform="translate(-936.31 -585.75) rotate(22.89)"/><rect class="cls-1" x="1170.65" y="207.3" width="13.53" height="1.8" transform="translate(-943.55 -583.98) rotate(22.89)"/><rect class="cls-1" x="1162.65" y="190.3" width="13.53" height="1.8" transform="translate(-950.8 -582.21) rotate(22.89)"/><rect class="cls-1" x="1154.65" y="173.3" width="13.53" height="1.8" transform="translate(-958.04 -580.44) rotate(22.89)"/><rect class="cls-1" x="1146.65" y="157.3" width="13.53" height="1.8" transform="translate(-964.89 -578.58) rotate(22.89)"/><rect class="cls-1" x="1167.98" y="200.32" width="12.39" height="1.68" transform="translate(-620.07 1039.08) rotate(-65.09)"/><rect class="cls-1" x="1158.98" y="182.32" width="12.39" height="1.68" transform="translate(-608.95 1020.5) rotate(-65.09)"/><rect class="cls-1" x="1150.98" y="165.32" width="12.39" height="1.68" transform="translate(-598.17 1003.4) rotate(-65.09)"/><rect class="cls-1" x="1084.2" y="189.38" width="100.98" height="2.04" transform="translate(-531.8 1059.09) rotate(-71.01)"/></svg>