<svg id="minecraft_building" data-name="minecraft building" xmlns="http://www.w3.org/2000/svg" viewBox="0 0 131 284"><defs><style>.cls-1{fill:#fff;}.cls-2{fill:#adc5e7;}.cls-3{fill:#406ab3;}.cls-4{fill:#fcd3d3;}</style></defs><title>minecraft</title><rect class="cls-1" x="56.59" y="63" width="21.41" height="22"/><rect class="cls-2" x="75.46" y="63" width="21.54" height="22"/><rect class="cls-1" x="94.32" y="63" width="20.68" height="22"/><rect class="cls-2" x="113.18" y="63" width="17.82" height="22"/><rect class="cls-2" x="56.59" y="85" width="21.41" height="22"/><rect class="cls-3" x="75.46" y="85" width="20.54" height="22"/><rect class="cls-4" x="94.32" y="85" width="20.68" height="22"/><rect class="cls-3" x="113.18" y="85" width="17.82" height="22"/><rect class="cls-3" x="56.59" y="107" width="20.41" height="22"/><rect class="cls-1" x="75.46" y="107" width="20.54" height="22"/><rect class="cls-2" x="94.32" y="107" width="20.68" height="22"/><rect class="cls-1" x="113.18" y="107" width="17.82" height="22"/><rect class="cls-3" y="129" width="20" height="22"/><rect class="cls-2" x="18.86" y="129" width="20.14" height="22"/><rect class="cls-1" x="38.73" y="129" width="19.27" height="22"/><rect class="cls-4" x="56.59" y="129" width="21.41" height="22"/><rect class="cls-2" x="75.46" y="129" width="20.54" height="22"/><rect class="cls-4" x="94.32" y="129" width="20.68" height="22"/><rect class="cls-3" x="113.18" y="129" width="17.82" height="22"/><rect class="cls-2" y="151" width="22" height="22"/><rect class="cls-4" x="18.86" y="151" width="20.14" height="22"/><rect class="cls-2" x="37.73" y="151" width="20.27" height="22"/><rect class="cls-3" x="56.59" y="151" width="20.41" height="22"/><rect class="cls-4" x="75.46" y="151" width="19.54" height="22"/><rect class="cls-1" x="94.32" y="151" width="19.68" height="22"/><rect class="cls-2" x="113.18" y="151" width="17.82" height="22"/><rect class="cls-3" y="173" width="21" height="22"/><rect class="cls-2" x="18.86" y="173" width="20.14" height="22"/><rect class="cls-3" x="37.73" y="173" width="21.27" height="22"/><rect class="cls-1" x="56.59" y="173" width="20.41" height="22"/><rect class="cls-3" x="75.46" y="173" width="20.54" height="22"/><rect class="cls-2" x="94.32" y="173" width="20.68" height="22"/><rect class="cls-3" x="113.18" y="173" width="17.82" height="22"/><rect class="cls-2" y="195" width="20" height="22"/><rect class="cls-1" x="18.86" y="195" width="23.14" height="22"/><rect class="cls-4" x="37.73" y="195" width="20.27" height="22"/><rect class="cls-2" x="56.59" y="195" width="20.41" height="22"/><rect class="cls-4" x="75.46" y="195" width="19.54" height="22"/><rect class="cls-3" x="94.32" y="195" width="19.68" height="22"/><rect class="cls-1" x="113.18" y="195" width="17.82" height="22"/><rect class="cls-3" x="57" y="217" width="19" height="23"/><rect class="cls-1" x="75.46" y="217" width="19.54" height="23"/><rect class="cls-4" x="94.32" y="217" width="19.68" height="23"/><rect class="cls-2" x="113.18" y="217" width="17.82" height="23"/><rect class="cls-4" x="37.73" width="19.27" height="22"/><rect class="cls-3" x="56.59" width="20.41" height="22"/><rect class="cls-1" x="75.46" width="19.54" height="22"/><rect class="cls-4" x="94.32" width="19.68" height="22"/><rect class="cls-1" x="113.18" width="17.82" height="22"/><rect class="cls-2" x="37.73" y="22" width="20.27" height="22"/><rect class="cls-1" x="56.59" y="22" width="20.41" height="22"/><rect class="cls-2" x="75.46" y="22" width="19.54" height="22"/><rect class="cls-3" x="94.32" y="22" width="19.68" height="22"/><rect class="cls-2" x="113.18" y="22" width="17.82" height="22"/><rect class="cls-2" x="56.59" y="44" width="20.41" height="20"/><rect class="cls-3" x="75.46" y="44" width="19.54" height="20"/><rect class="cls-4" x="94.32" y="44" width="19.68" height="20"/><rect class="cls-3" x="113.18" y="44" width="17.82" height="20"/><rect class="cls-1" x="37.73" y="217" width="19.27" height="23"/><rect class="cls-2" x="56.59" y="240" width="20.41" height="22"/><rect class="cls-4" x="75.46" y="240" width="21.54" height="22"/><rect class="cls-3" x="94.32" y="240" width="19.68" height="22"/><rect class="cls-1" x="113.18" y="240" width="17.82" height="22"/><rect class="cls-3" x="56.59" y="262" width="19.41" height="22"/><rect class="cls-2" x="75.46" y="262" width="19.54" height="22"/><rect class="cls-1" x="94.32" y="262" width="19.68" height="22"/><rect class="cls-3" x="113.18" y="262" width="17.82" height="22"/><rect class="cls-2" width="19" height="22"/><rect class="cls-1" x="18.86" width="19.14" height="22"/><rect class="cls-3" y="22" width="19" height="22"/><rect class="cls-4" x="18.86" y="22" width="20.14" height="22"/><rect class="cls-1" y="44" width="20" height="20"/><rect class="cls-2" x="18.86" y="44" width="20.14" height="20"/><rect class="cls-3" x="37.73" y="44" width="19.27" height="20"/><rect class="cls-2" y="64" width="20" height="22"/><rect class="cls-4" x="18.86" y="64" width="20.14" height="22"/><rect class="cls-2" x="37.73" y="64" width="20.27" height="22"/><rect class="cls-1" y="86" width="20" height="22"/><rect class="cls-3" x="18.86" y="86" width="20.14" height="22"/><rect class="cls-4" x="37.73" y="86" width="20.27" height="22"/><rect class="cls-2" y="108" width="21" height="22"/><rect class="cls-4" x="18.86" y="108" width="20.14" height="22"/><rect class="cls-2" x="37.73" y="108" width="20.27" height="22"/><rect class="cls-4" y="217" width="20" height="23"/><rect class="cls-2" x="18.86" y="217" width="19.14" height="23"/><rect class="cls-2" y="240" width="20" height="22"/><rect class="cls-3" x="18.86" y="240" width="20.14" height="22"/><rect class="cls-4" x="37.73" y="240" width="19.27" height="22"/><rect class="cls-4" y="262" width="19" height="22"/><rect class="cls-2" x="18.86" y="262" width="19.14" height="22"/><rect class="cls-1" x="37.73" y="262" width="19.27" height="22"/></svg>