<svg id="moa" xmlns="http://www.w3.org/2000/svg" viewBox="0 0 263.98 166.22"><defs><style>.cls-1{fill:#f47053;}.cls-2{fill:#adc5e7;}.cls-3{fill:none;stroke:#fcd3d3;stroke-miterlimit:10;stroke-width:2px;}.cls-4{fill:#fff;}</style></defs><title>moa</title><polygon class="cls-1" points="263 165 46 166 15 0 263 62.01 263 165"/><polygon class="cls-2" points="48 166 2.25 165 0 50 25 50 48 166"/><line class="cls-3" x1="29" y1="4" x2="64" y2="166"/><line class="cls-3" x1="44" y1="7" x2="78" y2="166"/><line class="cls-3" x1="58" y1="11" x2="92" y2="166"/><line class="cls-3" x1="72" y1="14" x2="105" y2="166"/><line class="cls-3" x1="86" y1="18" x2="118" y2="166"/><line class="cls-3" x1="99" y1="21" x2="131" y2="166"/><line class="cls-3" x1="114" y1="25" x2="145" y2="166"/><line class="cls-3" x1="129" y1="29" x2="159" y2="166"/><line class="cls-3" x1="143" y1="33" x2="172" y2="166"/><line class="cls-3" x1="157" y1="36" x2="186" y2="166"/><line class="cls-3" x1="172" y1="40" x2="200" y2="166"/><line class="cls-3" x1="187" y1="43" x2="214" y2="166"/><line class="cls-3" x1="201" y1="46" x2="227" y2="166"/><line class="cls-3" x1="215" y1="50" x2="241" y2="166"/><line class="cls-3" x1="229" y1="54" x2="254" y2="166"/><line class="cls-3" x1="243" y1="56" x2="263" y2="148"/><polygon class="cls-4" points="44.91 150 0 150 0 158 47 158 44.91 150"/><polygon class="cls-4" points="42.04 135 0 135 0 143 44 143 42.04 135"/><polygon class="cls-4" points="39.18 120 0 120 0 128 41 128 39.18 120"/><polygon class="cls-4" points="36.31 105 0 105 0 113 38 113 36.31 105"/><polygon class="cls-4" points="33.44 90 0 90 0 98 35 98 33.44 90"/><polygon class="cls-4" points="30.58 75 0 75 0 83 32 83 30.58 75"/><polygon class="cls-4" points="27.71 60 0 60 0 68 29 68 27.71 60"/><polygon class="cls-4" points="24.84 45 0 45 0 53 26 53 24.84 45"/></svg>