<svg id="skyline" xmlns="http://www.w3.org/2000/svg" viewBox="0 0 1251 652"><defs><style>.cls-1{fill:#adc5e7;}.cls-2{fill:#fcd3d3;}.cls-3{fill:#f37154;}.cls-4{fill:#406ab3;}.cls-5,.cls-7,.cls-8{fill:#fff;}.cls-6{fill:none;}.cls-7{stroke:#fff;}.cls-7,.cls-8{stroke-miterlimit:10;}.cls-8{stroke:#f2f2f2;}</style></defs><title>skyline</title><polygon class="cls-1" points="329 534 275 520.77 275 254 329 254 329 534"/><rect class="cls-1" x="329" y="370" width="98" height="282"/><rect class="cls-1" x="712" y="280" width="62" height="83"/><rect class="cls-1" x="785" y="280" width="136" height="372"/><rect class="cls-2" x="615" y="230" width="97" height="422"/><path class="cls-3" d="M935,323c1.34-13.87,12.73-25.54,26-26,14.3-.5,27.06,11,28,26" transform="translate(1 115)"/><polyline class="cls-3" points="998 504 998 493 1012 493 1012 487 1027 487 1027 482 1038 482 1038 487 1053 487 1053 493 1068 493 1068 504"/><rect class="cls-4" x="796.5" y="267.5" width="122" height="12"/><rect class="cls-4" x="712" y="268" width="58" height="12"/><rect class="cls-5" x="727" y="262" width="47" height="6"/><rect class="cls-5" x="789" y="262" width="73" height="6"/><rect class="cls-2" x="944" y="438" width="38" height="40"/><rect class="cls-2" x="944" y="480" width="38" height="58"/><rect class="cls-2" x="944" y="546" width="38" height="83"/><rect class="cls-2" x="984" y="546" width="95" height="82"/><rect class="cls-2" x="1081" y="547" width="38" height="81"/><polygon class="cls-3" points="1119 547 944 546 936 538 1126 538 1119 547"/><polygon class="cls-3" points="1072 509 993 509 987 504 1078 504 1072 509"/><rect class="cls-2" x="993" y="509" width="79" height="29"/><rect class="cls-2" x="944" y="630" width="175" height="17"/><rect class="cls-1" x="1133" y="410" width="102" height="242"/><rect class="cls-1" x="1196" y="469" width="55" height="183"/><rect class="cls-4" x="1133" y="410" width="10" height="242"/><rect class="cls-4" x="1162" y="410" width="10" height="242"/><rect class="cls-4" x="1194" y="410" width="10" height="242"/><rect class="cls-4" x="1225" y="410" width="10" height="57"/><rect class="cls-4" x="1194" y="467" width="57" height="9"/><rect class="cls-4" x="1194" y="497" width="57" height="9"/><rect class="cls-4" x="1194" y="529" width="57" height="9"/><rect class="cls-4" x="1194" y="561" width="57" height="9"/><rect class="cls-4" x="1194" y="591" width="57" height="9"/><rect class="cls-4" x="1194" y="621" width="57" height="9"/><rect class="cls-5" x="955" y="396" width="16" height="2"/><rect class="cls-5" x="962" y="389" width="2" height="23"/><rect class="cls-5" x="1031" y="464" width="2" height="18"/><rect class="cls-5" x="1025" y="470" width="14" height="2"/><rect class="cls-5" x="634" y="187" width="24" height="43"/><rect class="cls-1" x="658" y="216" width="37" height="14"/><rect class="cls-1" x="658" y="148" width="2" height="68"/><rect class="cls-1" x="651" y="167" width="16" height="2"/><rect class="cls-1" x="651" y="175" width="16" height="2"/><path class="cls-2" d="M595,686" transform="translate(1 115)"/><rect class="cls-2" x="1" y="397" width="176" height="185"/><polygon class="cls-4" points="269 513 213 498 213 323 269 323 269 513"/><rect class="cls-2" x="998" y="502" width="70" height="2"/><rect class="cls-2" x="1012" y="491" width="41" height="2"/><path class="cls-1" d="M798,541" transform="translate(1 115)"/><rect class="cls-4" x="673" y="363" width="131" height="289"/><rect class="cls-5" x="615" y="238" width="82" height="4"/><rect class="cls-5" x="630" y="247" width="82" height="4"/><rect class="cls-5" x="615" y="256" width="65" height="4"/><rect class="cls-5" x="615" y="266" width="82" height="4"/><rect class="cls-5" x="630" y="275" width="82" height="4"/><rect class="cls-5" x="615" y="284" width="65" height="4"/><rect class="cls-5" x="615" y="293" width="82" height="4"/><rect class="cls-5" x="630" y="302" width="82" height="4"/><rect class="cls-5" x="615" y="311" width="65" height="4"/><rect class="cls-5" x="615" y="320" width="81" height="4"/><rect class="cls-5" x="629" y="329" width="82" height="4"/><rect class="cls-5" x="615" y="338" width="64" height="4"/><rect class="cls-5" x="615" y="347" width="82" height="4"/><rect class="cls-5" x="630" y="356" width="82" height="4"/><rect class="cls-5" x="615" y="365" width="58" height="4"/><rect class="cls-5" x="615" y="375" width="82" height="4"/><rect class="cls-5" x="630" y="384" width="82" height="4"/><rect class="cls-5" x="615" y="393" width="65" height="4"/><rect class="cls-5" x="615" y="402" width="82" height="4"/><rect class="cls-5" x="630" y="411" width="82" height="4"/><rect class="cls-5" x="615" y="420" width="65" height="4"/><rect class="cls-5" x="615" y="430" width="82" height="4"/><rect class="cls-5" x="630" y="439" width="82" height="4"/><rect class="cls-5" x="615" y="448" width="65" height="4"/><rect class="cls-5" x="615" y="459" width="82" height="4"/><rect class="cls-5" x="630" y="468" width="82" height="4"/><rect class="cls-5" x="615" y="477" width="65" height="4"/><rect class="cls-5" x="615" y="488" width="82" height="4"/><rect class="cls-5" x="630" y="497" width="82" height="4"/><rect class="cls-5" x="615" y="506" width="65" height="4"/><rect class="cls-5" x="615" y="516" width="82" height="4"/><rect class="cls-5" x="630" y="525" width="82" height="4"/><rect class="cls-5" x="615" y="534" width="65" height="4"/><rect class="cls-5" x="615" y="545" width="81" height="4"/><rect class="cls-5" x="629" y="554" width="82" height="4"/><rect class="cls-5" x="615" y="563" width="64.21" height="4"/><rect class="cls-5" x="615" y="574" width="81" height="4"/><rect class="cls-5" x="629" y="583" width="82" height="4"/><rect class="cls-5" x="615" y="592" width="64.21" height="4"/><rect class="cls-5" x="615" y="602" width="81" height="4"/><rect class="cls-5" x="629" y="611" width="82" height="4"/><rect class="cls-5" x="615" y="620" width="64" height="4"/><rect class="cls-5" x="615" y="629" width="82" height="4"/><rect class="cls-5" x="630" y="638" width="82" height="4"/><rect class="cls-5" x="713" y="291" width="14" height="3"/><rect class="cls-5" x="713" y="307" width="14" height="3"/><rect class="cls-5" x="713" y="321" width="14" height="3"/><rect class="cls-5" x="713" y="329" width="14" height="3"/><rect class="cls-5" x="713" y="351" width="14" height="3"/><rect class="cls-5" x="729" y="284" width="14" height="3"/><rect class="cls-5" x="729" y="329" width="14" height="3"/><rect class="cls-5" x="729" y="343" width="14" height="3"/><rect class="cls-5" x="729" y="351" width="14" height="3"/><rect class="cls-5" x="745" y="290" width="14" height="3"/><rect class="cls-5" x="745" y="307" width="14" height="3"/><rect class="cls-5" x="728" y="314" width="14" height="3"/><rect class="cls-5" x="729" y="357" width="14" height="3"/><rect class="cls-5" x="745" y="321" width="14" height="3"/><rect class="cls-5" x="745" y="343" width="14" height="3"/><rect class="cls-5" x="761" y="284" width="11" height="3"/><rect class="cls-5" x="761" y="298" width="11" height="3"/><rect class="cls-5" x="761" y="307" width="11" height="3"/><rect class="cls-5" x="761" y="321" width="11" height="3"/><rect class="cls-5" x="761" y="329" width="11" height="3"/><rect class="cls-5" x="761" y="343" width="11" height="3"/><rect class="cls-5" x="761" y="351" width="11" height="3"/><rect class="cls-5" x="816" y="442" width="14" height="3"/><rect class="cls-5" x="816" y="450" width="14" height="3"/><rect class="cls-5" x="816" y="458" width="14" height="3"/><rect class="cls-5" x="816" y="474" width="14" height="3"/><rect class="cls-5" x="816" y="482" width="14" height="3"/><rect class="cls-5" x="816" y="490" width="14" height="3"/><rect class="cls-5" x="816" y="502" width="14" height="3"/><rect class="cls-5" x="816" y="510" width="14" height="3"/><rect class="cls-5" x="816" y="518" width="14" height="3"/><rect class="cls-5" x="816" y="541" width="14" height="3"/><rect class="cls-5" x="816" y="549" width="14" height="3"/><rect class="cls-5" x="816" y="557" width="14" height="3"/><rect class="cls-5" x="817" y="575" width="14" height="3"/><rect class="cls-5" x="817" y="583" width="14" height="3"/><rect class="cls-5" x="817" y="591" width="14" height="3"/><rect class="cls-5" x="817" y="600" width="14" height="3"/><rect class="cls-5" x="817" y="608" width="14" height="3"/><rect class="cls-5" x="817" y="616" width="14" height="3"/><rect class="cls-5" x="816" y="425" width="14" height="3"/><rect class="cls-5" x="816" y="433" width="14" height="3"/><rect class="cls-5" x="834" y="630" width="14" height="3"/><rect class="cls-5" x="862" y="630" width="14" height="3"/><rect class="cls-5" x="880" y="630" width="14" height="3"/><rect class="cls-5" x="896" y="358" width="14" height="3"/><rect class="cls-5" x="903" y="630" width="14" height="3"/><rect class="cls-5" x="903" y="637" width="14" height="3"/><rect class="cls-5" x="812" y="637" width="14" height="3"/><rect class="cls-5" x="790" y="284" width="14" height="3"/><rect class="cls-5" x="800" y="291" width="14" height="3"/><rect class="cls-5" x="790" y="298" width="14" height="3"/><rect class="cls-5" x="790" y="307" width="14" height="3"/><rect class="cls-5" x="800" y="314" width="14" height="3"/><rect class="cls-5" x="790" y="321" width="14" height="3"/><rect class="cls-5" x="790" y="329" width="14" height="3"/><rect class="cls-5" x="800" y="336" width="14" height="3"/><rect class="cls-5" x="790" y="343" width="14" height="3"/><rect class="cls-5" x="790" y="351" width="14" height="3"/><rect class="cls-5" x="834" y="284" width="14" height="3"/><rect class="cls-5" x="834" y="296" width="14" height="3"/><rect class="cls-5" x="834" y="305" width="14" height="3"/><rect class="cls-5" x="834" y="320" width="14" height="3"/><rect class="cls-5" x="834" y="328" width="14" height="3"/><rect class="cls-5" x="834" y="342" width="14" height="3"/><rect class="cls-5" x="834" y="350" width="14" height="3"/><rect class="cls-5" x="835" y="372" width="14" height="3"/><rect class="cls-5" x="835" y="380" width="14" height="3"/><rect class="cls-5" x="834" y="411" width="14" height="3"/><rect class="cls-5" x="834" y="419" width="14" height="3"/><rect class="cls-5" x="835" y="450" width="14" height="3"/><rect class="cls-5" x="835" y="458" width="14" height="3"/><rect class="cls-5" x="835" y="465" width="14" height="3"/><rect class="cls-5" x="835" y="473" width="14" height="3"/><rect class="cls-5" x="835" y="494" width="14" height="3"/><rect class="cls-5" x="835" y="502" width="14" height="3"/><rect class="cls-5" x="835" y="514" width="14" height="3"/><rect class="cls-5" x="835" y="522" width="14" height="3"/><rect class="cls-5" x="835" y="533" width="14" height="3"/><rect class="cls-5" x="835" y="541" width="14" height="3"/><rect class="cls-5" x="835" y="560" width="14" height="3"/><rect class="cls-5" x="835" y="568" width="14" height="3"/><rect class="cls-5" x="835" y="575" width="14" height="3"/><rect class="cls-5" x="835" y="583" width="14" height="3"/><rect class="cls-5" x="835" y="600" width="14" height="3"/><rect class="cls-5" x="835" y="608" width="14" height="3"/><rect class="cls-5" x="835" y="616" width="14" height="3"/><rect class="cls-5" x="817" y="291" width="14" height="3"/><rect class="cls-5" x="817" y="305" width="14" height="3"/><rect class="cls-5" x="817" y="314" width="14" height="3"/><rect class="cls-5" x="817" y="328" width="14" height="3"/><rect class="cls-5" x="817" y="336" width="14" height="3"/><rect class="cls-5" x="817" y="350" width="14" height="3"/><rect class="cls-5" x="817" y="358" width="14" height="3"/><rect class="cls-5" x="817" y="366" width="14" height="3"/><rect class="cls-5" x="817" y="380" width="14" height="3"/><rect class="cls-5" x="817" y="389" width="14" height="3"/><rect class="cls-5" x="817" y="403" width="14" height="3"/><rect class="cls-5" x="817" y="411" width="14" height="3"/><rect class="cls-5" x="862" y="291" width="14" height="3"/><rect class="cls-5" x="862" y="305" width="14" height="3"/><rect class="cls-5" x="862" y="314" width="14" height="3"/><rect class="cls-5" x="862" y="328" width="14" height="3"/><rect class="cls-5" x="862" y="336" width="14" height="3"/><rect class="cls-5" x="862" y="350" width="14" height="3"/><rect class="cls-5" x="862" y="358" width="14" height="3"/><rect class="cls-5" x="862" y="366" width="14" height="3"/><rect class="cls-5" x="862" y="442" width="14" height="3"/><rect class="cls-5" x="862" y="458" width="14" height="3"/><rect class="cls-5" x="862" y="474" width="14" height="3"/><rect class="cls-5" x="862" y="490" width="14" height="3"/><rect class="cls-5" x="862" y="502" width="14" height="3"/><rect class="cls-5" x="862" y="510" width="14" height="3"/><rect class="cls-5" x="862" y="518" width="14" height="3"/><rect class="cls-5" x="862" y="541" width="14" height="3"/><rect class="cls-5" x="862" y="549" width="14" height="3"/><rect class="cls-5" x="862" y="557" width="14" height="3"/><rect class="cls-5" x="863" y="575" width="14" height="3"/><rect class="cls-5" x="863" y="583" width="14" height="3"/><rect class="cls-5" x="863" y="591" width="14" height="3"/><rect class="cls-5" x="863" y="600" width="14" height="3"/><rect class="cls-5" x="863" y="608" width="14" height="3"/><rect class="cls-5" x="863" y="616" width="14" height="3"/><rect class="cls-5" x="835" y="623" width="14" height="3"/><rect class="cls-5" x="863" y="623" width="14" height="3"/><rect class="cls-5" x="862" y="380" width="14" height="3"/><rect class="cls-5" x="862" y="389" width="14" height="3"/><rect class="cls-5" x="862" y="403" width="14" height="3"/><rect class="cls-5" x="862" y="411" width="14" height="3"/><rect class="cls-5" x="862" y="425" width="14" height="3"/><rect class="cls-5" x="880" y="284" width="14" height="3"/><rect class="cls-5" x="880" y="297" width="14" height="3"/><rect class="cls-5" x="880" y="306" width="14" height="3"/><rect class="cls-5" x="880" y="320" width="14" height="3"/><rect class="cls-5" x="880" y="328" width="14" height="3"/><rect class="cls-5" x="880" y="342" width="14" height="3"/><rect class="cls-5" x="880" y="350" width="14" height="3"/><rect class="cls-5" x="880" y="358" width="14" height="3"/><rect class="cls-5" x="880" y="442" width="14" height="3"/><rect class="cls-5" x="880" y="450" width="14" height="3"/><rect class="cls-5" x="880" y="466" width="14" height="3"/><rect class="cls-5" x="880" y="474" width="14" height="3"/><rect class="cls-5" x="880" y="494" width="14" height="3"/><rect class="cls-5" x="880" y="502" width="14" height="3"/><rect class="cls-5" x="880" y="510" width="14" height="3"/><rect class="cls-5" x="880" y="533" width="14" height="3"/><rect class="cls-5" x="880" y="541" width="14" height="3"/><rect class="cls-5" x="880" y="549" width="14" height="3"/><rect class="cls-5" x="881" y="567" width="14" height="3"/><rect class="cls-5" x="881" y="575" width="14" height="3"/><rect class="cls-5" x="881" y="583" width="14" height="3"/><rect class="cls-5" x="881" y="600" width="14" height="3"/><rect class="cls-5" x="881" y="608" width="14" height="3"/><rect class="cls-5" x="880" y="372" width="14" height="3"/><rect class="cls-5" x="880" y="381" width="14" height="3"/><rect class="cls-5" x="880" y="395" width="14" height="3"/><rect class="cls-5" x="880" y="403" width="14" height="3"/><rect class="cls-5" x="880" y="417" width="14" height="3"/><rect class="cls-5" x="880" y="425" width="14" height="3"/><rect class="cls-5" x="897" y="284" width="14" height="3"/><rect class="cls-5" x="897" y="306" width="14" height="3"/><rect class="cls-5" x="897" y="314" width="14" height="3"/><rect class="cls-5" x="905" y="291" width="14" height="3"/><rect class="cls-5" x="905" y="320" width="14" height="3"/><rect class="cls-5" x="897" y="328" width="14" height="3"/><rect class="cls-5" x="897" y="336" width="14" height="3"/><rect class="cls-5" x="897" y="344" width="14" height="3"/><rect class="cls-5" x="897" y="367" width="14" height="3"/><rect class="cls-5" x="897" y="381" width="14" height="3"/><rect class="cls-5" x="897" y="389" width="14" height="3"/><rect class="cls-5" x="897" y="403" width="14" height="3"/><rect class="cls-5" x="897" y="411" width="14" height="3"/><rect class="cls-5" x="897" y="425" width="14" height="3"/><rect class="cls-5" x="897" y="438" width="14" height="3"/><rect class="cls-5" x="897" y="447" width="14" height="3"/><rect class="cls-5" x="897" y="461" width="14" height="3"/><rect class="cls-5" x="897" y="483" width="14" height="3"/><rect class="cls-5" x="897" y="491" width="14" height="3"/><rect class="cls-5" x="897" y="499" width="14" height="3"/><rect class="cls-5" x="904" y="510" width="14" height="3"/><rect class="cls-5" x="904" y="474" width="14" height="3"/><rect class="cls-5" x="903" y="431" width="14" height="3"/><rect class="cls-5" x="903" y="417" width="14" height="3"/><rect class="cls-5" x="897" y="522" width="14" height="3"/><rect class="cls-5" x="897" y="537" width="14" height="3"/><rect class="cls-5" x="897" y="556" width="14" height="3"/><rect class="cls-5" x="897" y="616" width="14" height="3"/><rect class="cls-5" x="904" y="608" width="14" height="3"/><rect class="cls-5" x="904" y="644" width="14" height="3"/><rect class="cls-5" x="881" y="644" width="14" height="3"/><rect class="cls-5" x="835" y="644" width="14" height="3"/><rect class="cls-5" x="813" y="644" width="14" height="3"/><rect class="cls-5" x="904" y="583" width="14" height="3"/><rect class="cls-5" x="904" y="549" width="14" height="3"/><rect class="cls-5" x="895" y="567" width="16" height="3"/><rect class="cls-5" x="888" y="591" width="23" height="3"/><rect class="cls-5" x="800" y="358" width="14" height="3"/><rect class="cls-5" x="805" y="371" width="9" height="3"/><rect class="cls-5" x="805" y="395" width="9" height="3"/><rect class="cls-5" x="805" y="419" width="9" height="3"/><rect class="cls-5" x="845" y="291" width="14" height="3"/><rect class="cls-5" x="845" y="314" width="14" height="3"/><rect class="cls-5" x="845" y="336" width="14" height="3"/><rect class="cls-5" x="845" y="358" width="14" height="3"/><rect class="cls-5" x="845" y="389" width="14" height="3"/><rect class="cls-5" x="845" y="397" width="14" height="3"/><rect class="cls-5" x="845" y="434" width="14" height="3"/><rect class="cls-5" x="845" y="441" width="14" height="3"/><rect class="cls-5" x="845" y="483" width="14" height="3"/><rect class="cls-5" x="845" y="494" width="14" height="3"/><rect class="cls-5" x="845" y="549" width="14" height="3"/><rect class="cls-5" x="845" y="591" width="14" height="3"/><polygon class="cls-2" points="492 652 447 652 447 288 494 260 492 652"/><polygon class="cls-2" points="587 652 499 652 499 177 587 269.19 587 652"/><polygon class="cls-5" points="499 194 587 284 587 300 499 211.43 499 194"/><polygon class="cls-5" points="499 226 587 316 587 332 499 243.43 499 226"/><polygon class="cls-5" points="499 259 587 349 587 365 499 276.43 499 259"/><polygon class="cls-5" points="499 291 587 381 587 397 499 308.43 499 291"/><polygon class="cls-5" points="499 324 587 414 587 430 499 341.43 499 324"/><polygon class="cls-5" points="499 357 587 447 587 463 499 374.43 499 357"/><polygon class="cls-5" points="499 390 587 480 587 496 499 407.43 499 390"/><polygon class="cls-5" points="499 424 587 514 587 530 499 441.43 499 424"/><polygon class="cls-5" points="499 460 587 550 587 566 499 477.43 499 460"/><polygon class="cls-5" points="499 494 587 584 587 600 499 511.43 499 494"/><polygon class="cls-5" points="499 527 587 617 587 633 499 544.43 499 527"/><polygon class="cls-5" points="499 560 587 652 573 652 499 577.43 499 560"/><polygon class="cls-5" points="499 594 556 652 539 652 499 611.43 499 594"/><polygon class="cls-5" points="499 631 520 652 503 652 499 648.43 499 631"/><line class="cls-6" x1="1031" y1="2" x2="1031"/><rect class="cls-7" x="8.5" y="406.5" width="48.05" height="48.05"/><rect class="cls-1" x="8.5" y="465.61" width="48.05" height="48.05"/><rect class="cls-4" x="8.5" y="524.95" width="48.05" height="48.05"/><rect class="cls-4" x="64.5" y="406.5" width="48.05" height="48.05"/><rect class="cls-7" x="64.5" y="465.61" width="48.05" height="48.05"/><rect class="cls-1" x="64.5" y="524.95" width="48.05" height="48.05"/><rect class="cls-7" x="120.5" y="406.5" width="48.05" height="48.05"/><rect class="cls-1" x="120.5" y="465.61" width="48.05" height="48.05"/><rect class="cls-4" x="120.5" y="524.95" width="48.05" height="48.05"/><rect class="cls-4" x="282" y="254" width="8" height="268"/><rect class="cls-4" x="321" y="254" width="8" height="278"/><rect class="cls-4" x="301" y="254" width="8" height="278"/><rect class="cls-4" x="329" y="384" width="98" height="8"/><rect class="cls-4" x="329" y="404" width="98" height="8"/><rect class="cls-4" x="329" y="424" width="98" height="8"/><rect class="cls-4" x="329" y="444" width="98" height="8"/><rect class="cls-4" x="329" y="465" width="98" height="8"/><rect class="cls-4" x="329" y="484" width="98" height="8"/><rect class="cls-4" x="329" y="503" width="98" height="8"/><rect class="cls-4" x="329" y="524" width="98" height="8"/><rect class="cls-5" x="1017" y="592" width="30" height="36"/><ellipse class="cls-5" cx="1032" cy="594.5" rx="15" ry="14.5"/><rect class="cls-5" x="993" y="535" width="79" height="1.5"/><rect class="cls-5" x="984" y="550" width="95" height="2"/><rect class="cls-5" x="984" y="554" width="95" height="2"/><rect class="cls-5" x="984" y="558" width="95" height="2"/><rect class="cls-5" x="993" y="532" width="79" height="1.5"/><rect class="cls-5" x="993" y="511" width="79" height="1.5"/><rect class="cls-5" x="1077" y="560" width="1" height="68"/><rect class="cls-5" x="1069" y="560" width="1" height="68"/><rect class="cls-5" x="1061" y="560" width="1" height="68"/><rect class="cls-5" x="1053" y="560" width="1" height="68"/><rect class="cls-5" x="1046" y="560" width="1" height="68"/><rect class="cls-5" x="994" y="509" width="1" height="29"/><rect class="cls-5" x="998" y="509" width="1" height="29"/><rect class="cls-5" x="1002" y="509" width="1" height="29"/><rect class="cls-5" x="1006" y="509" width="1" height="29"/><rect class="cls-5" x="1010" y="509" width="1" height="29"/><rect class="cls-5" x="1014" y="509" width="1" height="29"/><rect class="cls-5" x="1018" y="509" width="1" height="29"/><rect class="cls-5" x="1022" y="509" width="1" height="29"/><rect class="cls-5" x="1026" y="509" width="1" height="29"/><rect class="cls-5" x="1030" y="509" width="1" height="29"/><rect class="cls-5" x="1034" y="509" width="1" height="29"/><rect class="cls-5" x="1038" y="509" width="1" height="29"/><rect class="cls-5" x="1042" y="509" width="1" height="29"/><rect class="cls-5" x="1046" y="509" width="1" height="29"/><rect class="cls-5" x="1050" y="509" width="1" height="29"/><rect class="cls-5" x="1054" y="509" width="1" height="29"/><rect class="cls-5" x="1058" y="509" width="1" height="29"/><rect class="cls-5" x="1062" y="509" width="1" height="29"/><rect class="cls-5" x="1070" y="509" width="1" height="29"/><rect class="cls-5" x="1066" y="509" width="1" height="29"/><rect class="cls-5" x="1009" y="560" width="1" height="68"/><rect class="cls-5" x="1017" y="560" width="1" height="68"/><rect class="cls-5" x="1001" y="560" width="1" height="68"/><rect class="cls-5" x="993" y="560" width="1" height="68"/><rect class="cls-5" x="985" y="560" width="1" height="68"/><line class="cls-8" x1="947.5" y1="478" x2="947.5" y2="438"/><line class="cls-8" x1="951.5" y1="478" x2="951.5" y2="438"/><line class="cls-8" x1="955.5" y1="478" x2="955.5" y2="438"/><line class="cls-8" x1="959.5" y1="478" x2="959.5" y2="438"/><line class="cls-8" x1="963.5" y1="478" x2="963.5" y2="438"/><line class="cls-8" x1="967.5" y1="478" x2="967.5" y2="438"/><line class="cls-8" x1="971.5" y1="478" x2="971.5" y2="438"/><line class="cls-8" x1="975.5" y1="478" x2="975.5" y2="438"/><line class="cls-8" x1="979.5" y1="478" x2="979.5" y2="438"/><line class="cls-8" x1="947.5" y1="628" x2="947.5" y2="546"/><line class="cls-8" x1="951.5" y1="628" x2="951.5" y2="546"/><line class="cls-8" x1="955.5" y1="628" x2="955.5" y2="546"/><line class="cls-8" x1="959.5" y1="628" x2="959.5" y2="546"/><line class="cls-8" x1="963.5" y1="628" x2="963.5" y2="546"/><line class="cls-8" x1="967.5" y1="628" x2="967.5" y2="546"/><line class="cls-8" x1="971.5" y1="628" x2="971.5" y2="546"/><line class="cls-8" x1="975.5" y1="628" x2="975.5" y2="546"/><line class="cls-8" x1="979.5" y1="628" x2="979.5" y2="546"/><line class="cls-8" x1="1083.5" y1="628" x2="1083.5" y2="547"/><line class="cls-8" x1="1087.5" y1="628" x2="1087.5" y2="547"/><line class="cls-8" x1="1091.5" y1="628" x2="1091.5" y2="547"/><line class="cls-8" x1="1095.5" y1="628" x2="1095.5" y2="547"/><line class="cls-8" x1="1099.5" y1="628" x2="1099.5" y2="547"/><line class="cls-8" x1="1103.5" y1="628" x2="1103.5" y2="547"/><line class="cls-8" x1="1107.5" y1="628" x2="1107.5" y2="547"/><line class="cls-8" x1="1111.5" y1="628" x2="1111.5" y2="547"/><line class="cls-8" x1="1115.5" y1="628" x2="1115.5" y2="547"/><line class="cls-8" x1="947.5" y1="647" x2="947.5" y2="630"/><line class="cls-8" x1="951.5" y1="647" x2="951.5" y2="630"/><line class="cls-8" x1="955.5" y1="647" x2="955.5" y2="630"/><line class="cls-8" x1="959.5" y1="647" x2="959.5" y2="630"/><line class="cls-8" x1="963.5" y1="647" x2="963.5" y2="630"/><line class="cls-8" x1="967.5" y1="647" x2="967.5" y2="630"/><line class="cls-8" x1="971.5" y1="647" x2="971.5" y2="630"/><line class="cls-8" x1="975.5" y1="647" x2="975.5" y2="630"/><line class="cls-8" x1="979.5" y1="647" x2="979.5" y2="630"/><line class="cls-8" x1="1083.5" y1="647" x2="1083.5" y2="630"/><line class="cls-8" x1="1087.5" y1="647" x2="1087.5" y2="630"/><line class="cls-8" x1="1091.5" y1="647" x2="1091.5" y2="630"/><line class="cls-8" x1="1095.5" y1="647" x2="1095.5" y2="630"/><line class="cls-8" x1="1099.5" y1="647" x2="1099.5" y2="630"/><line class="cls-8" x1="1103.5" y1="647" x2="1103.5" y2="630"/><line class="cls-8" x1="1107.5" y1="647" x2="1107.5" y2="630"/><line class="cls-8" x1="1111.5" y1="647" x2="1111.5" y2="630"/><line class="cls-8" x1="1115.5" y1="647" x2="1115.5" y2="630"/><line class="cls-8" x1="1047.5" y1="647" x2="1047.5" y2="630"/><line class="cls-8" x1="1051.5" y1="647" x2="1051.5" y2="630"/><line class="cls-8" x1="1055.5" y1="647" x2="1055.5" y2="630"/><line class="cls-8" x1="1059.5" y1="647" x2="1059.5" y2="630"/><line class="cls-8" x1="1063.5" y1="647" x2="1063.5" y2="630"/><line class="cls-8" x1="1067.5" y1="647" x2="1067.5" y2="630"/><line class="cls-8" x1="1071.5" y1="647" x2="1071.5" y2="630"/><line class="cls-8" x1="1075.5" y1="647" x2="1075.5" y2="630"/><line class="cls-8" x1="1079.5" y1="647" x2="1079.5" y2="630"/><line class="cls-8" x1="1011.5" y1="647" x2="1011.5" y2="630"/><line class="cls-8" x1="1015.5" y1="647" x2="1015.5" y2="630"/><line class="cls-8" x1="1019.5" y1="647" x2="1019.5" y2="630"/><line class="cls-8" x1="1023.5" y1="647" x2="1023.5" y2="630"/><line class="cls-8" x1="1027.5" y1="647" x2="1027.5" y2="630"/><line class="cls-8" x1="1031.5" y1="647" x2="1031.5" y2="630"/><line class="cls-8" x1="1035.5" y1="647" x2="1035.5" y2="630"/><line class="cls-8" x1="1039.5" y1="647" x2="1039.5" y2="630"/><line class="cls-8" x1="1043.5" y1="647" x2="1043.5" y2="630"/><line class="cls-8" x1="975.5" y1="647" x2="975.5" y2="630"/><line class="cls-8" x1="979.5" y1="647" x2="979.5" y2="630"/><line class="cls-8" x1="983.5" y1="647" x2="983.5" y2="630"/><line class="cls-8" x1="987.5" y1="647" x2="987.5" y2="630"/><line class="cls-8" x1="991.5" y1="647" x2="991.5" y2="630"/><line class="cls-8" x1="995.5" y1="647" x2="995.5" y2="630"/><line class="cls-8" x1="999.5" y1="647" x2="999.5" y2="630"/><line class="cls-8" x1="1003.5" y1="647" x2="1003.5" y2="630"/><line class="cls-8" x1="1007.5" y1="647" x2="1007.5" y2="630"/><line class="cls-8" x1="947.5" y1="538" x2="947.5" y2="480"/><line class="cls-8" x1="951.5" y1="538" x2="951.5" y2="480"/><line class="cls-8" x1="955.5" y1="538" x2="955.5" y2="480"/><line class="cls-8" x1="959.5" y1="538" x2="959.5" y2="480"/><line class="cls-8" x1="963.5" y1="538" x2="963.5" y2="480"/><line class="cls-8" x1="967.5" y1="538" x2="967.5" y2="480"/><line class="cls-8" x1="971.5" y1="538" x2="971.5" y2="480"/><line class="cls-8" x1="975.5" y1="538" x2="975.5" y2="480"/><line class="cls-8" x1="979.5" y1="538" x2="979.5" y2="480"/><rect class="cls-4" y="582" width="17" height="65"/><rect class="cls-4" x="29" y="582" width="17" height="65"/><rect class="cls-4" x="126" y="582" width="17" height="65"/></svg>